<svg xmlns="http://www.w3.org/2000/svg" viewBox="0 0 4090.58 1151.66">
  <defs>
    <style>.cls-1{fill:#cce7d3;}.cls-2{fill:#888de4;}.cls-3{fill:none;stroke:#333;stroke-linecap:round;stroke-linejoin:round;stroke-width:7px;}</style>
  </defs>
  <g id="Layer_2" data-name="Layer 2">
    <g id="Pietro_1" data-name="Pietro 1">
      <g id="Classes">
        <rect class="cls-1" x="1111.08" y="268.96" width="507" height="264.44"/>
        <rect class="cls-1" x="60.94" y="54.42" width="438.41" height="264.29" transform="translate(55.99 -64.51) rotate(14.58)"/>
        <rect class="cls-1" x="14.52" y="292" width="276.22" height="122.85" transform="matrix(0.97, 0.25, -0.25, 0.97, 93.88, -27.04)"/>
        <rect class="cls-1" x="489.1" y="135.27" width="203.72" height="264.29" transform="translate(86.35 -140.15) rotate(14.58)"/>
        <rect class="cls-1" x="349.47" y="508.88" width="239.94" height="523.26" transform="translate(209.08 -93.36) rotate(14.58)"/>
        <rect class="cls-1" x="538.59" y="906.19" width="119.37" height="165.42" transform="translate(268.2 -118.76) rotate(14.58)"/>
        <rect class="cls-1" x="577.78" y="764.99" width="115.94" height="146.04" transform="translate(231.42 -133.05) rotate(14.58)"/>
        <rect class="cls-1" x="693.57" y="600.74" width="257.63" height="523.48" transform="translate(243.59 -179.25) rotate(14.58)"/>
        <polyline class="cls-1" points="1060.28 528.22 1071.77 531.21 1071.77 531.36 1110.88 531.36 1110.88 268.81 1111.18 267.69 1110.88 267.61 1110.88 266.92 1108.22 266.92 973.68 231.92 907 488.31 927.34 493.6 927.33 493.64 1010.5 515.28"/>
        <rect class="cls-1" x="1618.08" y="268.96" width="130" height="264.44"/>
        <rect class="cls-1" x="1748.08" y="271.19" width="384" height="264.44"/>
        <rect class="cls-1" x="2132.08" y="271.19" width="382" height="264.44"/>
        <rect class="cls-1" x="2514.08" y="271.19" width="389" height="264.44"/>
        <rect class="cls-1" x="2903.08" y="268.96" width="131" height="264.44"/>
        <rect class="cls-1" x="3034.08" y="268.96" width="382" height="264.44"/>
        <rect class="cls-1" x="3687.08" y="268.96" width="400" height="264.44"/>
        <rect class="cls-1" x="3780.08" y="533.41" width="307" height="117.56"/>
      </g>
      <g id="Stairs">
        <polygon class="cls-2" points="813.71 464.06 880.4 207.66 973.18 231.79 907 488.31 813.71 464.06"/>
        <polygon class="cls-2" points="3557.3 533.4 3556.86 463.06 3482.54 463.06 3482.28 268.96 3416.08 268.96 3416.08 533.41 3474.19 533.4 3474.19 533.41 3557.3 533.4"/>
        <polygon class="cls-2" points="3480.41 419.86 3480.42 349.96 3558.66 349.96 3559.08 419.86 3480.41 419.86"/>
      </g>
      <g id="Lines">
        <polyline class="cls-3" points="1111.08 268.96 4087.08 268.96 4087.08 650.96 1111.08 650.96"/>
        <line class="cls-3" x1="1111.08" y1="533.41" x2="1111.08" y2="268.96"/>
        <line class="cls-3" x1="1618.08" y1="446.96" x2="1618.08" y2="268.96"/>
        <line class="cls-3" x1="1618.08" y1="533.41" x2="1618.08" y2="493.96"/>
        <line class="cls-3" x1="1748.08" y1="533.41" x2="1748.08" y2="268.96"/>
        <line class="cls-3" x1="2132.08" y1="533.41" x2="2132.08" y2="268.96"/>
        <line class="cls-3" x1="2514.08" y1="533.41" x2="2514.08" y2="268.96"/>
        <line class="cls-3" x1="2903.08" y1="533.41" x2="2903.08" y2="268.96"/>
        <line class="cls-3" x1="3034.08" y1="533.41" x2="3034.08" y2="268.96"/>
        <line class="cls-3" x1="3416.08" y1="533.41" x2="3416.08" y2="268.96"/>
        <line class="cls-3" x1="3480.42" y1="463.63" x2="3480.42" y2="268.96"/>
        <line class="cls-3" x1="3559.08" y1="368.96" x2="3559.08" y2="268.96"/>
        <line class="cls-3" x1="3559.08" y1="463.63" x2="3559.08" y2="399.63"/>
        <line class="cls-3" x1="3687.08" y1="533.41" x2="3687.08" y2="268.96"/>
        <line class="cls-3" x1="3780.08" y1="588.3" x2="3780.08" y2="533.41"/>
        <line class="cls-3" x1="3780.08" y1="650.96" x2="3780.08" y2="630.63"/>
        <line class="cls-3" x1="419.44" y1="487.07" x2="651.41" y2="547.51"/>
        <polyline class="cls-3" points="1012.92 641.71 880.95 1148.16 287.48 993.52 419.44 487.06"/>
        <line class="cls-3" x1="763.61" y1="576.74" x2="1012.92" y2="641.71"/>
        <line class="cls-3" x1="710.08" y1="781.96" x2="659.85" y2="974.37"/>
        <line class="cls-3" x1="597.95" y1="752.69" x2="710.08" y2="781.96"/>
        <line class="cls-3" x1="561.05" y1="894.18" x2="673.18" y2="923.46"/>
        <line class="cls-3" x1="582.5" y1="811.86" x2="597.95" y2="752.69"/>
        <polyline class="cls-3" points="651.07 1008 631.43 1083.2 519.3 1053.93 574.5 842.53"/>
        <line class="cls-3" x1="974.29" y1="230.98" x2="1111.08" y2="268.96"/>
        <line class="cls-3" x1="3.5" y1="378.68" x2="419.44" y2="487.07"/>
        <polyline class="cls-3" points="907.2 488.46 974.29 230.98 101.26 3.5 3.5 378.68"/>
        <line class="cls-3" x1="1111.08" y1="533.41" x2="1079.51" y2="533.41"/>
        <line class="cls-3" x1="1124.86" y1="651.03" x2="1048.91" y2="651.03"/>
        <line class="cls-3" x1="274.54" y1="433.21" x2="270.62" y2="448.26"/>
        <line class="cls-3" x1="301.75" y1="328.74" x2="283.85" y2="397.45"/>
        <line class="cls-3" x1="34.64" y1="259.17" x2="301.75" y2="328.74"/>
        <line class="cls-3" x1="1012.73" y1="641.59" x2="1048.54" y2="650.93"/>
        <line class="cls-3" x1="459.02" y1="369.64" x2="525.65" y2="114.19"/>
        <line class="cls-3" x1="619.65" y1="669.27" x2="651.41" y2="547.51"/>
        <polyline class="cls-3" points="720.52 741.93 710.09 781.94 597.9 752.67 608.41 712.38"/>
        <line class="cls-3" x1="763.6" y1="576.77" x2="731.77" y2="698.82"/>
        <line class="cls-3" x1="656.15" y1="421.05" x2="613.7" y2="409.98"/>
        <line class="cls-3" x1="1012.92" y1="516.02" x2="813.71" y2="464.06"/>
        <line class="cls-3" x1="1079.51" y1="533.39" x2="1059.93" y2="528.28"/>
        <line class="cls-3" x1="722.77" y1="165.6" x2="656.15" y2="421.05"/>
        <line class="cls-3" x1="864.79" y1="268.21" x2="813.71" y2="464.06"/>
        <line class="cls-3" x1="344.23" y1="339.7" x2="301.78" y2="328.63"/>
        <line class="cls-3" x1="572.73" y1="399.3" x2="391.48" y2="352.02"/>
        <line class="cls-3" x1="3754.25" y1="533.41" x2="4087.08" y2="533.41"/>
        <line class="cls-3" x1="3687.08" y1="533.41" x2="3709.08" y2="533.41"/>
        <line class="cls-3" x1="3480.42" y1="463.63" x2="3556.86" y2="463.63"/>
        <line class="cls-3" x1="3482.64" y1="349.96" x2="3559.08" y2="349.96"/>
        <line class="cls-3" x1="3482.64" y1="419.86" x2="3559.08" y2="419.86"/>
        <line class="cls-3" x1="3369.47" y1="533.41" x2="3557.3" y2="533.41"/>
        <line class="cls-3" x1="3016.86" y1="533.41" x2="3322.86" y2="533.41"/>
        <line class="cls-3" x1="2876.19" y1="533.41" x2="2964.19" y2="533.41"/>
        <line class="cls-3" x1="2474.25" y1="533.41" x2="2825.75" y2="533.41"/>
        <line class="cls-3" x1="2097.08" y1="533.41" x2="2422.25" y2="533.41"/>
        <line class="cls-3" x1="1596.42" y1="533.41" x2="2046.58" y2="533.41"/>
        <line class="cls-3" x1="1111.08" y1="533.41" x2="1545.75" y2="533.41"/>
      </g>
    </g>
  </g>
</svg>