<?xml version="1.0" encoding="UTF-8" standalone="no"?>
<svg
   viewBox="0 0 4286.11 1353.3"
   version="1.1"
   id="svg1443"
   sodipodi:docname="firstFloor.svg"
   inkscape:version="1.1.1 (3bf5ae0d25, 2021-09-20)"
   xmlns:inkscape="http://www.inkscape.org/namespaces/inkscape"
   xmlns:sodipodi="http://sodipodi.sourceforge.net/DTD/sodipodi-0.dtd"
   xmlns="http://www.w3.org/2000/svg"
   xmlns:svg="http://www.w3.org/2000/svg">
  <sodipodi:namedview
     id="namedview1445"
     pagecolor="#505050"
     bordercolor="#eeeeee"
     borderopacity="1"
     inkscape:pageshadow="0"
     inkscape:pageopacity="0"
     inkscape:pagecheckerboard="0"
     showgrid="false"
     inkscape:zoom="0.25977631"
     inkscape:cx="423.44124"
     inkscape:cy="1208.7323"
     inkscape:window-width="1060"
     inkscape:window-height="1057"
     inkscape:window-x="0"
     inkscape:window-y="0"
     inkscape:window-maximized="1"
     inkscape:current-layer="Layer_2" />
  <defs
     id="defs1278">
    <style
       id="style1276">.cls-1{fill:#ddd;}.cls-2{fill:#fcfcfc;}.cls-3{fill:#b7b7b7;}.cls-4{fill:#888de4;}.cls-5{fill:none;stroke:#333;stroke-linecap:round;stroke-linejoin:round;stroke-width:7px;}</style>
  </defs>
  <g
     id="Layer_2"
     data-name="Layer 2">
    <g
       id="firstFloor">
      <g
         id="Background">
        <path
           class="cls-1"
           d="M4242.08,275.16H1234.67a44.07,44.07,0,0,1-11.08-1.42L176.67,1.43A44,44,0,0,0,123,33L1.43,500.24A44,44,0,0,0,33,553.94l331.56,86.24a44,44,0,0,1,31.53,53.69L285.57,1118.63a44,44,0,0,0,31.52,53.7l690.29,179.54a44,44,0,0,0,53.69-31.52l116-446.13a44,44,0,0,1,42.61-33H4242.08a44,44,0,0,0,44-44V319.19A44,44,0,0,0,4242.08,275.16Z"
           id="path1280" />
      </g>
      <g
         id="Floor">
        <polygon
           class="cls-2"
           points="1222.08 367.21 202.87 102.11 105.64 475.92 521.38 584.06 389.25 1092.07 982.65 1246.41 1114.78 738.41 1150.61 747.72 1150.61 749.22 4188.78 749.22 4188.78 367.21 1222.08 367.21"
           id="polygon1283" />
      </g>
      <g
         id="Classes">
        <rect
           class="cls-3"
           x="1212.78"
           y="367.22"
           width="507"
           height="264.44"
           id="rect1286" />
        <rect
           class="cls-3"
           x="162.64"
           y="152.67999"
           width="438.41006"
           height="264.29001"
           transform="rotate(14.58,381.84108,284.80185)"
           id="rect1288" />
        <rect
           class="cls-3"
           x="116.21"
           y="390.25"
           width="276.22"
           height="122.85"
           transform="matrix(0.97, 0.25, -0.25, 0.97, 121.89, -49.48)"
           id="rect1290" />
        <rect
           class="cls-3"
           x="590.79"
           y="233.52"
           width="203.72"
           height="264.29"
           transform="translate(114.35 -162.59) rotate(14.58)"
           id="rect1292" />
        <rect
           class="cls-3"
           x="451.17"
           y="607.13"
           width="239.94"
           height="523.26"
           transform="translate(237.09 -115.8) rotate(14.58)"
           id="rect1294" />
        <rect
           class="cls-3"
           x="640.29"
           y="1004.45"
           width="119.37"
           height="165.42"
           transform="translate(296.21 -141.19) rotate(14.58)"
           id="rect1296" />
        <rect
           class="cls-3"
           x="679.48"
           y="863.24"
           width="115.94"
           height="146.04"
           transform="translate(259.43 -155.49) rotate(14.58)"
           id="rect1298" />
        <rect
           class="cls-3"
           x="795.27"
           y="698.99"
           width="257.63"
           height="523.48"
           transform="translate(271.6 -201.68) rotate(14.58)"
           id="rect1300" />
        <polyline
           class="cls-3"
           points="1161.98 626.47 1173.47 629.46 1173.47 629.62 1212.58 629.62 1212.58 367.06 1212.87 365.94 1212.58 365.86 1212.58 365.17 1209.92 365.17 1075.38 330.18 1008.7 586.56 1029.04 591.85 1029.03 591.89 1112.2 613.53"
           id="polyline1302" />
        <rect
           class="cls-3"
           x="1719.78"
           y="367.22"
           width="130"
           height="264.44"
           id="rect1304" />
        <rect
           class="cls-3"
           x="1849.78"
           y="369.44"
           width="384"
           height="264.44"
           id="rect1306" />
        <rect
           class="cls-3"
           x="2233.78"
           y="369.44"
           width="382"
           height="264.44"
           id="rect1308" />
        <rect
           class="cls-3"
           x="2615.78"
           y="369.44"
           width="389"
           height="264.44"
           id="rect1310" />
        <rect
           class="cls-3"
           x="3004.78"
           y="367.22"
           width="131"
           height="264.44"
           id="rect1312" />
        <rect
           class="cls-3"
           x="3135.78"
           y="367.22"
           width="382"
           height="264.44"
           id="rect1314" />
        <rect
           class="cls-3"
           x="3788.78"
           y="367.22"
           width="400"
           height="264.44"
           id="rect1316" />
        <rect
           class="cls-3"
           x="3881.78"
           y="631.66"
           width="307"
           height="117.56"
           id="rect1318" />
      </g>
      <g
         id="Stairs">
        <polygon
           class="cls-4"
           points="915.4 562.31 982.1 305.91 1074.88 330.04 1008.7 586.56 915.4 562.31"
           id="polygon1321" />
        <polygon
           class="cls-4"
           points="3659 631.66 3658.55 561.32 3584.24 561.32 3583.98 367.22 3517.78 367.22 3517.78 631.66 3575.89 631.65 3575.89 631.66 3659 631.66"
           id="polygon1323" />
        <polygon
           class="cls-4"
           points="3582.11 518.11 3582.11 448.21 3660.36 448.21 3660.78 518.11 3582.11 518.11"
           id="polygon1325" />
      </g>
      <g
         id="Lines">
        <polyline
           class="cls-5"
           points="1212.78 367.21 4188.78 367.21 4188.78 749.22 1212.78 749.22"
           id="polyline1328" />
        <line
           class="cls-5"
           x1="1212.78"
           y1="631.66"
           x2="1212.78"
           y2="367.22"
           id="line1330" />
        <line
           class="cls-5"
           x1="1719.78"
           y1="545.22"
           x2="1719.78"
           y2="367.22"
           id="line1332" />
        <line
           class="cls-5"
           x1="1719.78"
           y1="631.66"
           x2="1719.78"
           y2="592.22"
           id="line1334" />
        <line
           class="cls-5"
           x1="1849.78"
           y1="631.66"
           x2="1849.78"
           y2="367.22"
           id="line1336" />
        <line
           class="cls-5"
           x1="2233.78"
           y1="631.66"
           x2="2233.78"
           y2="367.22"
           id="line1338" />
        <line
           class="cls-5"
           x1="2615.78"
           y1="631.66"
           x2="2615.78"
           y2="367.22"
           id="line1340" />
        <line
           class="cls-5"
           x1="3004.78"
           y1="631.66"
           x2="3004.78"
           y2="367.22"
           id="line1342" />
        <line
           class="cls-5"
           x1="3135.78"
           y1="631.66"
           x2="3135.78"
           y2="367.22"
           id="line1344" />
        <line
           class="cls-5"
           x1="3517.78"
           y1="631.66"
           x2="3517.78"
           y2="367.22"
           id="line1346" />
        <line
           class="cls-5"
           x1="3582.11"
           y1="561.88"
           x2="3582.11"
           y2="367.22"
           id="line1348" />
        <line
           class="cls-5"
           x1="3660.78"
           y1="467.22"
           x2="3660.78"
           y2="367.22"
           id="line1350" />
        <line
           class="cls-5"
           x1="3660.78"
           y1="561.88"
           x2="3660.78"
           y2="497.88"
           id="line1352" />
        <line
           class="cls-5"
           x1="3788.78"
           y1="631.66"
           x2="3788.78"
           y2="367.22"
           id="line1354" />
        <line
           class="cls-5"
           x1="3881.78"
           y1="686.55"
           x2="3881.78"
           y2="631.66"
           id="line1356" />
        <line
           class="cls-5"
           x1="3881.78"
           y1="749.22"
           x2="3881.78"
           y2="728.88"
           id="line1358" />
        <line
           class="cls-5"
           x1="521.14"
           y1="585.32"
           x2="753.11"
           y2="645.76"
           id="line1360" />
        <polyline
           class="cls-5"
           points="1114.62 739.96 982.65 1246.41 389.17 1091.77 521.14 585.32"
           id="polyline1362" />
        <line
           class="cls-5"
           x1="865.31"
           y1="675"
           x2="1114.61"
           y2="739.96"
           id="line1364" />
        <line
           class="cls-5"
           x1="811.78"
           y1="880.22"
           x2="761.55"
           y2="1072.62"
           id="line1366" />
        <line
           class="cls-5"
           x1="699.65"
           y1="850.94"
           x2="811.78"
           y2="880.22"
           id="line1368" />
        <line
           class="cls-5"
           x1="662.75"
           y1="992.44"
           x2="774.87"
           y2="1021.71"
           id="line1370" />
        <line
           class="cls-5"
           x1="684.2"
           y1="910.12"
           x2="699.65"
           y2="850.94"
           id="line1372" />
        <polyline
           class="cls-5"
           points="752.76 1106.26 733.13 1181.45 621 1152.18 676.2 940.78"
           id="polyline1374" />
        <line
           class="cls-5"
           x1="1075.98"
           y1="329.24"
           x2="1212.78"
           y2="367.22"
           id="line1376" />
        <line
           class="cls-5"
           x1="105.2"
           y1="476.93"
           x2="521.14"
           y2="585.32"
           id="line1378" />
        <polyline
           class="cls-5"
           points="1008.89 586.72 1075.98 329.24 202.96 101.75 105.2 476.93"
           id="polyline1380" />
        <line
           class="cls-5"
           x1="1212.78"
           y1="631.66"
           x2="1181.21"
           y2="631.66"
           id="line1382" />
        <line
           class="cls-5"
           x1="1226.56"
           y1="749.28"
           x2="1150.61"
           y2="749.28"
           id="line1384" />
        <line
           class="cls-5"
           x1="376.24"
           y1="531.46"
           x2="372.32"
           y2="546.51"
           id="line1386" />
        <line
           class="cls-5"
           x1="403.45"
           y1="426.99"
           x2="385.55"
           y2="495.7"
           id="line1388" />
        <line
           class="cls-5"
           x1="136.34"
           y1="357.42"
           x2="403.45"
           y2="426.99"
           id="line1390" />
        <line
           class="cls-5"
           x1="1114.43"
           y1="739.84"
           x2="1150.24"
           y2="749.18"
           id="line1392" />
        <line
           class="cls-5"
           x1="560.72"
           y1="467.89"
           x2="627.35"
           y2="212.44"
           id="line1394" />
        <line
           class="cls-5"
           x1="721.35"
           y1="767.52"
           x2="753.11"
           y2="645.76"
           id="line1396" />
        <polyline
           class="cls-5"
           points="822.22 840.18 811.79 880.19 699.6 850.93 710.11 810.63"
           id="polyline1398" />
        <line
           class="cls-5"
           x1="865.3"
           y1="675.02"
           x2="833.47"
           y2="797.07"
           id="line1400" />
        <line
           class="cls-5"
           x1="757.84"
           y1="519.3"
           x2="715.4"
           y2="508.23"
           id="line1402" />
        <line
           class="cls-5"
           x1="1114.61"
           y1="614.27"
           x2="915.4"
           y2="562.31"
           id="line1404" />
        <line
           class="cls-5"
           x1="1181.21"
           y1="631.64"
           x2="1161.63"
           y2="626.53"
           id="line1406" />
        <line
           class="cls-5"
           x1="824.47"
           y1="263.86"
           x2="757.84"
           y2="519.3"
           id="line1408" />
        <line
           class="cls-5"
           x1="966.49"
           y1="366.46"
           x2="915.4"
           y2="562.31"
           id="line1410" />
        <line
           class="cls-5"
           x1="445.93"
           y1="437.95"
           x2="403.48"
           y2="426.88"
           id="line1412" />
        <line
           class="cls-5"
           x1="674.42"
           y1="497.55"
           x2="493.18"
           y2="450.27"
           id="line1414" />
        <line
           class="cls-5"
           x1="3855.95"
           y1="631.66"
           x2="4188.78"
           y2="631.66"
           id="line1416" />
        <line
           class="cls-5"
           x1="3788.78"
           y1="631.66"
           x2="3810.78"
           y2="631.66"
           id="line1418" />
        <line
           class="cls-5"
           x1="3582.11"
           y1="561.88"
           x2="3658.56"
           y2="561.88"
           id="line1420" />
        <line
           class="cls-5"
           x1="3584.34"
           y1="448.22"
           x2="3660.78"
           y2="448.22"
           id="line1422" />
        <line
           class="cls-5"
           x1="3584.34"
           y1="518.11"
           x2="3660.78"
           y2="518.11"
           id="line1424" />
        <line
           class="cls-5"
           x1="3471.17"
           y1="631.66"
           x2="3659"
           y2="631.66"
           id="line1426" />
        <line
           class="cls-5"
           x1="3118.56"
           y1="631.66"
           x2="3424.56"
           y2="631.66"
           id="line1428" />
        <line
           class="cls-5"
           x1="2977.89"
           y1="631.66"
           x2="3065.89"
           y2="631.66"
           id="line1430" />
        <line
           class="cls-5"
           x1="2575.95"
           y1="631.66"
           x2="2927.45"
           y2="631.66"
           id="line1432" />
        <line
           class="cls-5"
           x1="2198.78"
           y1="631.66"
           x2="2523.95"
           y2="631.66"
           id="line1434" />
        <line
           class="cls-5"
           x1="1698.11"
           y1="631.66"
           x2="2148.28"
           y2="631.66"
           id="line1436" />
        <line
           class="cls-5"
           x1="1212.78"
           y1="631.66"
           x2="1647.45"
           y2="631.66"
           id="line1438" />
      </g>
    </g>
  </g>
</svg>
