<svg viewBox="0 0 4976.2 3335.18"
  xmlns="http://www.w3.org/2000/svg">
  <defs id="defs4">
    <style id="style2">.rooms{fill:#cce7d3;}.cls-2{fill:#888de4;}.cls-3{fill:none;stroke:#333;stroke-linecap:round;stroke-linejoin:round;stroke-width:7px;}</style>
  </defs>
  <g id="Layer_2" data-name="Layer 2">
    <g id="Parter">
      <g id="Main">
        <g id="Classes">
          <rect class="rooms" x="1104.37" y="950.64" width="423.44" height="225.22" id="rect6" />
          <rect class="rooms" x="741.55" y="1338.7" width="215.05" height="323.85" transform="matrix(0.97, 0.25, -0.25, 0.97, 405.83, -165.61)" id="classroom-38" />
          <rect class="rooms" x="796.73" y="1232.54" width="214.98" height="113.23" transform="translate(354.29 -186.35) rotate(14.61)" id="rect10" />
          <rect class="rooms" x="23.98" y="948.69" width="398.26" height="103.73" transform="translate(259.51 -23.93) rotate(14.61)" id="toilet" />
          <rect class="rooms" x="63.28" y="745.73" width="497.02" height="220.66" transform="matrix(0.97, 0.25, -0.25, 0.97, 225.94, -50.96)" id="classroom-42" />
          <polygon class="rooms" points="989.61 920.76 932.99 1138.06 965.59 1146.55 965.59 1146.55 1078 1175.84 1104.19 1175.84 1104.19 950.62 989.61 920.76" id="polygon16" />
          <rect class="rooms" x="542.63" y="885.41" width="206.67" height="168.84" transform="translate(265.42 -131.55) rotate(14.61)" id="classroom-41" />
          <rect class="rooms" x="1527.82" y="950.64" width="429.78" height="225.22" id="classroom-36" />
          <rect class="rooms" x="1957.59" y="950.64" width="424" height="225.22" id="rect22" />
          <rect class="rooms" x="2381.59" y="950.64" width="324" height="225.22" id="rect24" />
          <rect class="rooms" x="2705.5901" y="950.64001" width="319.10999" height="225.22" id="classroom-27" />
          <line class="rooms" x1="3092.7" y1="1270.53" x2="3134.04" y2="1270.53" id="line28" />
          <polygon class="rooms" points="3133.89 1270.53 3091.92 1270.53 2815.37 1270.53 2815.37 1501.86 3143.37 1501.86 3143.37 1270.53 3133.89 1270.53" id="classroom-26" />
          <polygon class="rooms" points="3119.22 1116.31 3106.77 1116.31 3024.7 1116.31 3024.7 1175.47 3122.04 1175.47 3122.04 1116.31 3119.22 1116.31" id="polygon32" />
          <polygon class="rooms" points="3032.44 1501.86 3018.48 1501.86 2926.48 1501.86 2926.48 1515.83 2903.02 1539.35 2926.48 1562.85 2902.98 1586.35 2926.48 1609.86 3035.59 1609.86 3035.59 1501.86 3032.44 1501.86" id="polygon34" />
          <polygon class="rooms" points="3564.1 1612.31 3536.33 1612.31 3353.37 1612.31 3353.37 1718.86 3570.37 1718.86 3570.37 1612.31 3564.1 1612.31" id="polygon36" />
          <polygon class="rooms" points="3242.95 1718.86 3227.33 1718.86 3124.37 1718.86 3124.37 1853.64 3246.48 1853.64 3246.48 1718.86 3242.95 1718.86" id="polygon38" />
          <polygon class="rooms" points="3775.56 1718.86 3719.93 1718.86 3353.37 1718.86 3353.37 1925.19 3788.12 1925.19 3788.12 1718.86 3775.56 1718.86" id="polygon40" />
          <polygon class="rooms" points="3115.44 1718.86 3075.9 1718.86 2815.37 1718.86 2815.37 1925.19 3124.37 1925.19 3124.37 1718.86 3115.44 1718.86" id="classroom-14" />
          <polygon class="rooms" points="3775.2 1925.19 3719.61 1925.19 3353.37 1925.19 3353.37 2145.86 3787.75 2145.86 3787.75 1925.19 3775.2 1925.19" id="polygon44" />
          <polygon class="rooms" points="3779.74 2145.86 3742.62 2145.86 3498.04 2145.86 3498.04 2569.69 3788.12 2569.69 3788.12 2145.86 3779.74 2145.86" id="polygon46" />
          <polygon class="rooms" points="3493.86 2145.86 3475.34 2145.86 3353.37 2145.86 3353.37 2460.86 3498.04 2460.86 3498.04 2145.86 3493.86 2145.86" id="polygon48" />
          <polygon class="rooms" points="3775.56 2569.69 3719.93 2569.69 3353.37 2569.69 3353.37 2801.86 3788.12 2801.86 3788.12 2569.69 3775.56 2569.69" id="polygon50" />
          <polyline class="rooms" points="3240.76 2037.19 3246.48 2037.19 3246.48 2355.86 3048.37 2355.86 3048.37 2037.19 3215.41 2037.19" id="classroom-10" />
          <polygon class="rooms" points="3153.32 2355.86 3108.78 2355.86 2815.37 2355.86 2815.37 2460.86 3163.37 2460.86 3163.37 2355.86 3153.32 2355.86" id="polygon54" />
          <polygon class="rooms" points="3638.2 2801.86 3619.73 2801.86 3498.04 2801.86 3498.04 2931.04 3642.37 2931.04 3642.37 2801.86 3638.2 2801.86" id="polygon56" />
          <polygon class="rooms" points="3638.2 2931.51 3619.73 2931.51 3498.04 2931.51 3498.04 3035.82 3642.37 3035.82 3642.37 2931.51 3638.2 2931.51" id="polygon58" />
          <polygon class="rooms" points="3638.2 3036.29 3619.73 3036.29 3498.04 3036.29 3498.04 3146.64 3642.37 3146.64 3642.37 3036.29 3638.2 3036.29" id="polygon60" />
          <polygon class="rooms" points="3638.2 3146.64 3619.73 3146.64 3498.04 3146.64 3498.04 3272.13 3641.91 3331.68 3642.37 3146.64 3638.2 3146.64" id="polygon62" />
          <polygon class="rooms" points="3234.03 2460.86 3178.86 2460.86 2815.37 2460.86 2815.37 2801.86 3246.48 2801.86 3246.48 2460.86 3234.03 2460.86" id="classroom-8" />
          <polygon class="rooms" points="3564.1 1513.86 3536.33 1513.86 3353.37 1513.86 3353.37 1612.31 3570.37 1612.31 3570.37 1513.86 3564.1 1513.86" id="polygon66" />
          <polygon class="rooms" points="3234.03 1925.19 3178.86 1925.19 2815.37 1925.19 2815.37 2355.86 3048.37 2355.86 3048.37 2037.19 3215.41 2037.19 3240.76 2037.19 3246.48 2037.19 3246.48 1925.19 3234.03 1925.19" id="library" />
          <polygon class="rooms" points="3564.1 1283.86 3536.33 1283.86 3353.37 1283.86 3353.37 1513.86 3570.37 1513.86 3570.37 1283.86 3564.1 1283.86" id="staffroom-1" />
          <polygon class="rooms" points="3564.1 1179.86 3536.33 1179.86 3353.37 1179.86 3353.37 1283.86 3570.37 1283.86 3570.37 1179.86 3564.1 1179.86" id="polygon72" />
          <polygon class="rooms" points="3564.1 1063.25 3536.33 1063.25 3353.37 1063.25 3353.37 1179.86 3570.37 1179.86 3570.37 1063.25 3564.1 1063.25" id="polygon74" />
          <polygon class="rooms" points="3564.1 852.2 3536.33 852.2 3353.37 852.2 3353.37 955.42 3570.37 955.42 3570.37 852.2 3564.1 852.2" id="polygon76" />
          <polygon class="rooms" points="3564.1 738.53 3536.33 738.53 3353.37 738.53 3353.37 852.2 3570.37 852.2 3570.37 738.53 3564.1 738.53" id="polygon78" />
          <polygon class="rooms" points="4263.89 3.5 4252.88 3.5 4180.37 3.5 4180.37 1391.06 4266.37 1391.06 4266.37 3.5 4263.89 3.5" id="polygon80" />
          <polygon class="rooms" points="3674.28 1063.25 3660.59 1063.25 3570.37 1063.25 3570.37 1283.28 3677.37 1283.28 3677.37 1063.25 3674.28 1063.25" id="polygon82" />
          <polygon class="rooms" points="3808.15 1063.25 3790.91 1063.25 3677.37 1063.25 3677.37 1283.67 3812.04 1283.67 3812.04 1063.25 3808.15 1063.25" id="polygon84" />
          <polygon class="rooms" points="3887.14 1063.25 3877.24 1063.25 3812.04 1063.25 3812.04 1283.28 3889.37 1283.28 3889.37 1063.25 3887.14 1063.25" id="polygon86" />
          <polygon class="rooms" points="3964.47 1063.25 3954.57 1063.25 3889.37 1063.25 3889.37 1283.28 3966.7 1283.28 3966.7 1063.25 3964.47 1063.25" id="polygon88" />
          <polygon class="rooms" points="4090.68 860.11 4074.34 860.11 3966.7 860.11 3966.7 955.42 4094.37 955.42 4094.37 860.11 4090.68 860.11" id="polygon90" />
          <polygon class="rooms" points="4090.68 690.25 4074.34 690.25 3966.7 690.25 3966.7 860.11 4094.37 860.11 4094.37 690.25 4090.68 690.25" id="Toilet" />
          <polygon class="rooms" points="4090.68 429.86 4074.34 429.86 3966.7 429.86 3966.7 690.25 4094.37 690.25 4094.37 429.86 4090.68 429.86" id="staffroom-2" />
          <polygon class="rooms" points="4090.68 3.5 4074.34 3.5 3966.7 3.5 3966.7 429.86 4094.37 429.86 4094.37 3.5 4090.68 3.5" id="polygon96" />
          <polygon class="rooms" points="3246.27 624.2 3235.51 624.2 3164.59 624.2 3164.59 677.53 3248.7 677.53 3248.7 624.2 3246.27 624.2" id="polygon98" />
          <polygon class="rooms" points="3242.45 463.86 3214.77 463.86 3032.37 463.86 3032.37 623.19 3248.7 623.19 3248.7 463.86 3242.45 463.86" id="polygon100" />
          <polygon class="rooms" points="3025.45 3.5 2997.77 3.5 2815.37 3.5 2815.37 300.53 3031.7 300.53 3031.7 3.5 3025.45 3.5" id="polygon102" />
          <polygon class="rooms" points="3242.12 358.19 3214.44 358.19 3032.04 358.19 3032.04 463.86 3248.37 463.86 3248.37 358.19 3242.12 358.19" id="polygon104" />
          <polygon class="rooms" points="3246.27 677.53 3235.51 677.53 3164.59 677.53 3164.59 738.53 3248.7 738.53 3248.7 677.53 3246.27 677.53" id="polygon106" />
          <polygon class="rooms" points="3154.5 623.53 3109.81 623.53 3032.04 623.53 3032.04 300.53 3025.78 300.53 2998.05 300.53 2815.37 300.53 2815.37 623.53 2815.37 639.86 2815.37 738.53 3164.59 738.53 3164.59 623.53 3154.5 623.53" id="polygon108" />
          <polygon class="rooms" points="3350.35 3.5 3336.95 3.5 3248.7 3.5 3248.7 147.28 3353.37 147.28 3353.37 3.5 3350.35 3.5" id="polygon110" />
          <polygon class="rooms" points="3244.97 3.5 3229.91 3.5 3130.7 3.5 3130.7 111.5 3248.37 111.5 3248.37 3.5 3244.97 3.5" id="polygon112" />
          <polygon class="rooms" points="3242.12 111.5 3214.44 111.5 3130.7 111.5 3130.7 3.5 3127.86 3.5 3115.28 3.5 3032.37 3.5 3032.37 111.5 3032.04 111.5 3032.04 358.19 3248.37 358.19 3248.37 111.5 3242.12 111.5" id="polygon114" />
          <polygon class="rooms" points="3775.56 3.5 3719.93 3.5 3353.37 3.5 3353.37 738.53 3788.12 738.53 3788.12 3.5 3775.56 3.5" id="polygon116" />
          <polygon class="rooms" points="2918.37 2801.86 2918.37 3032.86 3048.37 3086.55 3048.37 2801.86 2918.37 2801.86" id="polygon118" />
          <polygon class="rooms" points="3264.2 2999.45 3226.45 3159.99 3423.54 3240.7 3423.54 2998.93 3264.2 2999.45" id="polygon120" />
          <rect class="rooms" x="42.29" y="2591.07" width="377.44" height="217.17" transform="translate(-2439.66 2242.46) rotate(-75.39)" id="rect122" />
          <rect class="rooms" x="140.15" y="2807.14" width="296.86" height="511.85" transform="translate(-2748.27 2569.95) rotate(-75.39)" id="rect124" />
          <rect class="rooms" x="178.27" y="2278.63" width="268.32" height="217.17" transform="matrix(0.25, -0.97, 0.97, 0.25, -2076.43, 2087.59)" id="rect126" />
          <rect class="rooms" x="256.93" y="2033.22" width="238.88" height="217.17" transform="matrix(0.25, -0.97, 0.97, 0.25, -1791.13, 1965.95)" id="rect128" />
          <rect class="rooms" x="409.25" y="1759.09" width="77.11" height="217.17" transform="translate(-1472.44 1830.06) rotate(-75.39)" id="rect130" />
          <rect class="rooms" x="361.72" y="1597.81" width="256.21" height="217.17" transform="matrix(0.25, -0.97, 0.97, 0.25, -1284.94, 1750.12)" id="rect132" />
          <rect class="rooms" x="739.69" y="1606.8" width="110.45" height="212.7" transform="matrix(0.25, -0.97, 0.97, 0.25, -1063.32, 2050.4)" id="rect134" />
          <rect class="rooms" x="640.46" y="1767.44" width="225.2" height="212.7" transform="matrix(0.25, -0.97, 0.97, 0.25, -1250.07, 2130.02)" id="rect136" />
          <rect class="rooms" x="651.37" y="1933.05" width="117.08" height="212.7" transform="translate(-1442.6 2212.11) rotate(-75.39)" id="rect138" />
          <rect class="rooms" x="647.02" y="2082.79" width="120.06" height="156.79" transform="matrix(0.25, -0.97, 0.97, 0.25, -1562.58, 2300.43)" id="rect140" />
          <rect class="rooms" x="329.63" y="2668.18" width="377.44" height="212.7" transform="matrix(0.25, -0.97, 0.97, 0.25, -2297.23, 2576.51)" id="rect142" />
          <rect class="rooms" x="465.6" y="2355.74" width="268.32" height="212.7" transform="matrix(0.25, -0.97, 0.97, 0.25, -1934, 2421.63)" id="rect144" />
        </g>
        <g id="Stairs">
          <rect class="cls-2" x="3246.48" y="2670.53" width="42.22" height="131.33" id="rect147" />
          <rect class="cls-2" x="3081.37" y="1029.69" width="60.33" height="57.89" id="rect149" />
          <rect class="cls-2" x="4021.59" y="1063.25" width="71.44" height="62.31" id="rect151" />
          <polygon class="cls-2" points="4023.37 1228.86 4023.37 1063.25 3966.7 1063.25 3966.7 1228.86 3966.7 1232.5 3966.7 1283.86 4094.37 1283.86 4094.37 1228.86 4023.37 1228.86" id="polygon153" />
          <polygon class="cls-2" points="712.21 2224.56 712.21 2224.56 616.06 2199.51 600.73 2258.32 696.88 2283.37 680.93 2344.6 736.5 2359.08 767.78 2239.04 712.21 2224.56" id="polygon155" />
          <polygon class="cls-2" points="429.58 1902.66 333.43 1877.61 317.11 1938.65 471.11 1978.78 486.68 1917.54 429.58 1902.66" id="polygon157" />
          <polygon class="cls-2" points="368.45 1951.98 353.36 2012.12 456.32 2038.95 471.11 1978.78 368.45 1951.98" id="polygon159" />
          <polygon class="cls-2" points="937.4 905.18 894.13 1071.23 845.2 1058.48 831.38 1111.51 880.31 1124.26 880.29 1124.32 932.99 1138.06 990.09 918.91 937.4 905.18" id="polygon161" />
          <polygon class="cls-2" points="3286.87 2902.88 3423.54 2902.88 3423.54 2998.93 3264.2 2999.45 3286.87 2902.88" id="polygon163" />
          <polygon class="cls-2" points="3048.37 2917.36 3048.37 3086.55 3138.37 3123.43 3138.37 2917.36 3048.37 2917.36" id="polygon165" />
        </g>
        <g id="Lines">
          <polyline class="cls-3" points="3024.7 950.64 3024.7 1063.25 3024.7 1175.86" id="polyline168" />
          <polyline class="cls-3" points="3032.04 825.36 3032.04 845.11 3032.04 950.64" id="polyline170" />
          <line class="cls-3" x1="3032.04" y1="739.58" x2="3032.04" y2="778.69" id="line172" />
          <polyline class="cls-3" points="2705.59 950.64 2705.59 1063.25 2705.59 1175.86" id="polyline174" />
          <line class="cls-3" x1="2596.26" y1="1151.64" x2="2596.26" y2="1175.86" id="line176" />
          <polyline class="cls-3" points="2596.26 950.64 2596.26 1063.25 2596.26 1117.64" id="polyline178" />
          <polyline class="cls-3" points="2382.04 950.64 2382.04 1063.25 2382.04 1175.86" id="polyline180" />
          <polyline class="cls-3" points="1957.59 950.64 1957.59 1063.25 1957.59 1175.86" id="polyline182" />
          <polyline class="cls-3" points="1527.82 950.64 1527.82 1063.25 1527.82 1175.86" id="polyline184" />
          <line class="cls-3" x1="1422.04" y1="1130.86" x2="1422.04" y2="1175.86" id="line186" />
          <polyline class="cls-3" points="1422.04 950.64 1422.04 1063.25 1422.04 1097.86" id="polyline188" />
          <polyline class="cls-3" points="1336.7 1175.86 1104.37 1175.86 1104.37 950.64 3024.7 950.64" id="polyline190" />
          <line class="cls-3" x1="1885.54" y1="1175.86" x2="1383.7" y2="1175.86" id="line192" />
          <line class="cls-3" x1="2199.82" y1="1175.86" x2="1924.2" y2="1175.86" id="line194" />
          <line class="cls-3" x1="2328.04" y1="1175.86" x2="2243.37" y2="1175.86" id="line196" />
          <line class="cls-3" x1="2522.37" y1="1175.86" x2="2370.37" y2="1175.86" id="line198" />
          <line class="cls-3" x1="2952.7" y1="1175.86" x2="2559.59" y2="1175.86" id="line200" />
          <line class="cls-3" x1="3024.7" y1="1175.86" x2="2989.04" y2="1175.86" id="line202" />
          <line class="cls-3" x1="2815.37" y1="738.53" x2="2815.37" y2="3.5" id="line204" />
          <line class="cls-3" x1="2815.37" y1="1501.86" x2="2815.37" y2="1270.53" id="line206" />
          <line class="cls-3" x1="2815.37" y1="2801.86" x2="2815.37" y2="1718.86" id="line208" />
          <line class="cls-3" x1="3032.04" y1="623.19" x2="3032.04" y2="3.5" id="line210" />
          <line class="cls-3" x1="3164.59" y1="738.53" x2="3164.59" y2="623.53" id="line212" />
          <line class="cls-3" x1="3248.7" y1="22.67" x2="3248.7" y2="3.5" id="line214" />
          <line class="cls-3" x1="3248.7" y1="484.86" x2="3248.7" y2="89.67" id="line216" />
          <line class="cls-3" x1="3248.7" y1="635.19" x2="3248.7" y2="511.86" id="line218" />
          <line class="cls-3" x1="3130.7" y1="111.5" x2="3130.7" y2="3.5" id="line220" />
          <line class="cls-3" x1="3248.7" y1="677.53" x2="3248.7" y2="668.03" id="line222" />
          <line class="cls-3" x1="3248.7" y1="738.53" x2="3248.7" y2="712.19" id="line224" />
          <line class="cls-3" x1="3353.37" y1="24.17" x2="3353.37" y2="3.5" id="line226" />
          <line class="cls-3" x1="3353.37" y1="672.39" x2="3353.37" y2="88.67" id="line228" />
          <line class="cls-3" x1="3353.37" y1="738.53" x2="3353.37" y2="715.19" id="line230" />
          <line class="cls-3" x1="3081.7" y1="738.53" x2="2815.37" y2="738.53" id="line232" />
          <line class="cls-3" x1="2972.04" y1="300.53" x2="2815.37" y2="300.53" id="line234" />
          <line class="cls-3" x1="3032.04" y1="300.53" x2="3008.48" y2="300.53" id="line236" />
          <line class="cls-3" x1="3248.7" y1="623.19" x2="3032.37" y2="623.19" id="line238" />
          <line class="cls-3" x1="3248.7" y1="463.86" x2="3032.37" y2="463.86" id="line240" />
          <line class="cls-3" x1="3248.37" y1="358.19" x2="3032.04" y2="358.19" id="line242" />
          <line class="cls-3" x1="3248.37" y1="111.5" x2="3130.7" y2="111.5" id="line244" />
          <line class="cls-3" x1="3248.7" y1="677.53" x2="3164.59" y2="677.53" id="line246" />
          <line class="cls-3" x1="3269.87" y1="738.53" x2="3164.59" y2="738.53" id="line248" />
          <line class="cls-3" x1="3788.12" y1="738.53" x2="3336.54" y2="738.53" id="line250" />
          <line class="cls-3" x1="3788.12" y1="3.5" x2="3788.12" y2="738.53" id="line252" />
          <line class="cls-3" x1="3966.7" y1="3.5" x2="3966.7" y2="981.86" id="line254" />
          <line class="cls-3" x1="3966.7" y1="1034.03" x2="3966.7" y2="1063.25" id="line256" />
          <line class="cls-3" x1="4972.7" y1="3.5" x2="4972.7" y2="1391.06" id="line258" />
          <line class="cls-3" x1="4266.37" y1="3.5" x2="4266.37" y2="1391.06" id="line260" />
          <line class="cls-3" x1="4180.37" y1="1007.53" x2="4180.37" y2="1352.08" id="line262" />
          <line class="cls-3" x1="4180.37" y1="627.42" x2="4180.37" y2="960.86" id="line264" />
          <line class="cls-3" x1="4180.37" y1="300.53" x2="4180.37" y2="577.86" id="line266" />
          <line class="cls-3" x1="4180.37" y1="36.19" x2="4180.37" y2="257.19" id="line268" />
          <line class="cls-3" x1="4094.37" y1="935.86" x2="4094.37" y2="955.42" id="line270" />
          <line class="cls-3" x1="4094.37" y1="830.97" x2="4094.37" y2="901.19" id="line272" />
          <line class="cls-3" x1="3677.37" y1="1063.25" x2="3677.37" y2="1278.86" id="line274" />
          <line class="cls-3" x1="3812.04" y1="1119.86" x2="3812.04" y2="1283.67" id="line276" />
          <line class="cls-3" x1="3812.04" y1="1068.06" x2="3812.04" y2="1091.67" id="line278" />
          <line class="cls-3" x1="3889.37" y1="1119.86" x2="3889.37" y2="1283.28" id="line280" />
          <line class="cls-3" x1="3889.37" y1="1067.67" x2="3889.37" y2="1091.67" id="line282" />
          <line class="cls-3" x1="4093.04" y1="1063.25" x2="4093.04" y2="1080.75" id="line284" />
          <line class="cls-3" x1="4093.04" y1="1110.08" x2="4093.04" y2="1125.56" id="line286" />
          <line class="cls-3" x1="3966.7" y1="1063.25" x2="3966.7" y2="1278.86" id="line288" />
          <line class="cls-3" x1="4094.37" y1="661.64" x2="4094.37" y2="798.53" id="line290" />
          <line class="cls-3" x1="4094.37" y1="3.5" x2="4094.37" y2="627.42" id="line292" />
          <line class="cls-3" x1="3788.12" y1="1718.86" x2="3788.12" y2="2801.86" id="line294" />
          <line class="cls-3" x1="3353.37" y1="3.5" x2="3788.12" y2="3.5" id="line296" />
          <line class="cls-3" x1="4146.04" y1="3.5" x2="4972.7" y2="3.5" id="line298" />
          <line class="cls-3" x1="3966.7" y1="3.5" x2="4117.37" y2="3.5" id="line300" />
          <line class="cls-3" x1="3248.7" y1="3.5" x2="3353.37" y2="3.5" id="line302" />
          <line class="cls-3" x1="3311.54" y1="147.28" x2="3353.37" y2="147.28" id="line304" />
          <line class="cls-3" x1="3248.7" y1="147.28" x2="3272.37" y2="147.28" id="line306" />
          <line class="cls-3" x1="3017.59" y1="3.5" x2="3248.7" y2="3.5" id="line308" />
          <line class="cls-3" x1="2815.37" y1="3.5" x2="2989.15" y2="3.5" id="line310" />
          <line class="cls-3" x1="3353.37" y1="894.86" x2="3353.37" y2="825.36" id="line312" />
          <line class="cls-3" x1="4094.37" y1="1391.06" x2="4094.37" y2="1283.86" id="line314" />
          <line class="cls-3" x1="4022.93" y1="1228.86" x2="4022.93" y2="1063.25" id="line316" />
          <line class="cls-3" x1="3353.37" y1="955.42" x2="3353.37" y2="932.86" id="line318" />
          <line class="cls-3" x1="3353.37" y1="1123.64" x2="3353.37" y2="1063.25" id="line320" />
          <line class="cls-3" x1="3353.37" y1="1225.86" x2="3353.37" y2="1156.08" id="line322" />
          <line class="cls-3" x1="3353.37" y1="1347.64" x2="3353.37" y2="1260.03" id="line324" />
          <line class="cls-3" x1="3353.37" y1="1572.31" x2="3353.37" y2="1378.53" id="line326" />
          <line class="cls-3" x1="3353.37" y1="1672.31" x2="3353.37" y2="1606.75" id="line328" />
          <line class="cls-3" x1="2926.48" y1="1637.19" x2="2926.48" y2="1609.86" id="line330" />
          <line class="cls-3" x1="2926.48" y1="1515.83" x2="2926.48" y2="1501.86" id="line332" />
          <line class="cls-3" x1="2926.48" y1="1609.86" x2="2902.98" y2="1586.35" id="line334" />
          <line class="cls-3" x1="2926.51" y1="1562.85" x2="2903.02" y2="1539.35" id="line336" />
          <line class="cls-3" x1="2902.98" y1="1586.35" x2="2926.48" y2="1562.85" id="line338" />
          <line class="cls-3" x1="2903.02" y1="1539.35" x2="2926.54" y2="1515.83" id="line340" />
          <line class="cls-3" x1="2926.48" y1="1718.86" x2="2926.48" y2="1685.42" id="line342" />
          <line class="cls-3" x1="3035.59" y1="1536.75" x2="3035.59" y2="1501.86" id="line344" />
          <line class="cls-3" x1="3035.59" y1="1637.19" x2="3035.59" y2="1575.19" id="line346" />
          <line class="cls-3" x1="3035.59" y1="1718.86" x2="3035.59" y2="1685.42" id="line348" />
          <line class="cls-3" x1="3353.37" y1="1886.81" x2="3353.37" y2="1705.19" id="line350" />
          <line class="cls-3" x1="3353.37" y1="1973.19" x2="3353.37" y2="1913.86" id="line352" />
          <line class="cls-3" x1="3353.37" y1="2186.31" x2="3353.37" y2="2007.31" id="line354" />
          <line class="cls-3" x1="3353.37" y1="2460.86" x2="3353.37" y2="2213.19" id="line356" />
          <line class="cls-3" x1="3353.37" y1="2801.86" x2="3353.37" y2="2569.69" id="line358" />
          <line class="cls-3" x1="3246.48" y1="1737.53" x2="3246.48" y2="1718.86" id="line360" />
          <line class="cls-3" x1="3246.48" y1="1853.64" x2="3246.48" y2="1771.36" id="line362" />
          <line class="cls-3" x1="3124.37" y1="1873.08" x2="3124.37" y2="1718.92" id="line364" />
          <line class="cls-3" x1="3124.37" y1="1924.86" x2="3124.37" y2="1902.86" id="line366" />
          <line class="cls-3" x1="3048.37" y1="2355.86" x2="3048.37" y2="2037.19" id="line368" />
          <line class="cls-3" x1="3498.04" y1="2469.03" x2="3498.04" y2="2145.86" id="line370" />
          <line class="cls-3" x1="3498.04" y1="2568.19" x2="3498.04" y2="2498.69" id="line372" />
          <line class="cls-3" x1="3163.37" y1="2403.19" x2="3163.37" y2="2355.86" id="line374" />
          <line class="cls-3" x1="3163.37" y1="2460.86" x2="3163.37" y2="2436.75" id="line376" />
          <line class="cls-3" x1="2918.37" y1="3032.86" x2="2918.37" y2="2801.86" id="line378" />
          <line class="cls-3" x1="3641.91" y1="3331.68" x2="2918.37" y2="3032.86" id="line380" />
          <line class="cls-3" x1="3048.37" y1="2829.64" x2="3048.37" y2="2801.86" id="line382" />
          <line class="cls-3" x1="3048.37" y1="3086.55" x2="3048.37" y2="2859.86" id="line384" />
          <line class="cls-3" x1="3138.37" y1="3123.43" x2="3138.37" y2="2917.36" id="line386" />
          <line class="cls-3" x1="3642.37" y1="3331.68" x2="3642.37" y2="2801.86" id="line388" />
          <line class="cls-3" x1="3498.04" y1="2845.86" x2="3498.04" y2="2801.86" id="line390" />
          <line class="cls-3" x1="3498.04" y1="2946.53" x2="3498.04" y2="2872.69" id="line392" />
          <line class="cls-3" x1="3288.7" y1="2801.86" x2="3288.7" y2="2670.53" id="line394" />
          <line class="cls-3" x1="3498.04" y1="3068.75" x2="3498.04" y2="2976.36" id="line396" />
          <line class="cls-3" x1="3423.54" y1="3240.7" x2="3423.54" y2="2999.19" id="line398" />
          <line class="cls-3" x1="3498.04" y1="3165.08" x2="3498.04" y2="3096.19" id="line400" />
          <line class="cls-3" x1="3286.87" y1="2902.88" x2="3423.54" y2="2902.44" id="line402" />
          <line class="cls-3" x1="3226.45" y1="3159.99" x2="3286.87" y2="2902.93" id="line404" />
          <line class="cls-3" x1="3264.2" y1="2999.45" x2="3423.54" y2="2998.93" id="line406" />
          <line class="cls-3" x1="3498.04" y1="2931.51" x2="3642.37" y2="2931.04" id="line408" />
          <line class="cls-3" x1="3498.04" y1="3036.29" x2="3642.37" y2="3035.82" id="line410" />
          <line class="cls-3" x1="3498.04" y1="3147.11" x2="3642.37" y2="3146.64" id="line412" />
          <line class="cls-3" x1="3498.04" y1="3272.13" x2="3498.04" y2="3191.64" id="line414" />
          <line class="cls-3" x1="3246.48" y1="1970.31" x2="3246.48" y2="1925.19" id="line416" />
          <line class="cls-3" x1="3246.48" y1="2075.86" x2="3246.48" y2="2007.31" id="line418" />
          <line class="cls-3" x1="3246.48" y1="2355.86" x2="3246.48" y2="2107.03" id="line420" />
          <line class="cls-3" x1="3246.48" y1="2801.86" x2="3246.48" y2="2460.86" id="line422" />
          <line class="cls-3" x1="3270.7" y1="1718.86" x2="2815.37" y2="1718.86" id="line424" />
          <line class="cls-3" x1="3570.37" y1="1718.86" x2="3328.7" y2="1718.86" id="line426" />
          <line class="cls-3" x1="3246.48" y1="1925.19" x2="2815.37" y2="1925.19" id="line428" />
          <line class="cls-3" x1="3246.48" y1="1853.64" x2="3124.37" y2="1853.64" id="line430" />
          <line class="cls-3" x1="3246.48" y1="2037.19" x2="3048.37" y2="2037.19" id="line432" />
          <line class="cls-3" x1="3788.12" y1="1925.19" x2="3353.37" y2="1925.19" id="line434" />
          <line class="cls-3" x1="3788.12" y1="2145.86" x2="3353.37" y2="2145.86" id="line436" />
          <line class="cls-3" x1="3498.04" y1="2460.86" x2="3328.04" y2="2460.86" id="line438" />
          <line class="cls-3" x1="3788.12" y1="2569.69" x2="3353.37" y2="2569.69" id="line440" />
          <line class="cls-3" x1="3788.12" y1="1718.86" x2="3570.37" y2="1718.86" id="line442" />
          <line class="cls-3" x1="3246.48" y1="2355.86" x2="2815.37" y2="2355.86" id="line444" />
          <line class="cls-3" x1="3194.26" y1="2460.86" x2="2815.37" y2="2460.86" id="line446" />
          <line class="cls-3" x1="3274.7" y1="2460.86" x2="3229.82" y2="2460.86" id="line448" />
          <line class="cls-3" x1="3288.7" y1="2801.86" x2="2815.37" y2="2801.86" id="line450" />
          <line class="cls-3" x1="3788.12" y1="2801.86" x2="3353.37" y2="2801.86" id="line452" />
          <line class="cls-3" x1="3035.59" y1="1609.86" x2="2926.48" y2="1609.86" id="line454" />
          <line class="cls-3" x1="3570.37" y1="1063.25" x2="3570.37" y2="1718.86" id="line456" />
          <polyline class="cls-3" points="3353.37 790.86 3353.37 738.53 3570.37 738.53 3570.37 955.42" id="polyline458" />
          <line class="cls-3" x1="2820.37" y1="1270.53" x2="3094.87" y2="1270.53" id="line460" />
          <polyline class="cls-3" points="3134.57 1270.53 3143.37 1270.53 3143.37 1501.86 2815.37 1501.86" id="polyline462" />
          <line class="cls-3" x1="3024.7" y1="1175.86" x2="3142.48" y2="1175.86" id="line464" />
          <line class="cls-3" x1="3122.04" y1="1116.31" x2="3024.7" y2="1116.31" id="line466" />
          <line class="cls-3" x1="3141.7" y1="1005.64" x2="3081.37" y2="1005.36" id="line468" />
          <line class="cls-3" x1="3141.7" y1="1029.69" x2="3081.37" y2="1029.42" id="line470" />
          <line class="cls-3" x1="3141.7" y1="1087.57" x2="3082.94" y2="1087.43" id="line472" />
          <line class="cls-3" x1="3081.37" y1="1005.36" x2="3081.37" y2="1116.31" id="line474" />
          <line class="cls-3" x1="3122.04" y1="1161.97" x2="3122.04" y2="1175.86" id="line476" />
          <line class="cls-3" x1="3141.7" y1="1071.69" x2="3141.7" y2="1087.58" id="line478" />
          <line class="cls-3" x1="3141.7" y1="1029.69" x2="3141.7" y2="1045.53" id="line480" />
          <line class="cls-3" x1="3122.04" y1="1116.31" x2="3122.04" y2="1132.69" id="line482" />
          <line class="cls-3" x1="3024.7" y1="950.64" x2="3141.7" y2="950.64" id="line484" />
          <line class="cls-3" x1="3353.37" y1="955.42" x2="4094.37" y2="955.42" id="line486" />
          <line class="cls-3" x1="3939.15" y1="1063.25" x2="3966.7" y2="1063.25" id="line488" />
          <line class="cls-3" x1="4024.26" y1="1125.56" x2="4093.04" y2="1125.56" id="line490" />
          <line class="cls-3" x1="3855.37" y1="1063.25" x2="3909.15" y2="1063.25" id="line492" />
          <line class="cls-3" x1="3764.7" y1="1063.25" x2="3826.7" y2="1063.25" id="line494" />
          <line class="cls-3" x1="3966.7" y1="1063.25" x2="4093.04" y2="1063.25" id="line496" />
          <line class="cls-3" x1="4022.93" y1="1228.86" x2="4094.37" y2="1228.86" id="line498" />
          <line class="cls-3" x1="3662.7" y1="1063.25" x2="3735.7" y2="1063.25" id="line500" />
          <line class="cls-3" x1="3353.37" y1="1063.25" x2="3633.7" y2="1063.25" id="line502" />
          <line class="cls-3" x1="3353.37" y1="1179.86" x2="3570.37" y2="1179.86" id="line504" />
          <line class="cls-3" x1="3353.37" y1="1283.86" x2="4094.37" y2="1283.86" id="line506" />
          <line class="cls-3" x1="4094.37" y1="1391.06" x2="4972.7" y2="1391.06" id="line508" />
          <line class="cls-3" x1="3353.37" y1="1513.86" x2="3570.37" y2="1513.86" id="line510" />
          <line class="cls-3" x1="3353.37" y1="1612.31" x2="3570.37" y2="1612.31" id="line512" />
          <line class="cls-3" x1="3353.37" y1="852.19" x2="3570.37" y2="852.19" id="line514" />
          <line class="cls-3" x1="3966.7" y1="860.11" x2="4094.37" y2="860.11" id="line516" />
          <line class="cls-3" x1="3966.7" y1="690.25" x2="4094.37" y2="690.25" id="line518" />
          <line class="cls-3" x1="3966.7" y1="429.86" x2="4094.37" y2="429.86" id="line520" />
          <line class="cls-3" x1="1104.37" y1="1171.35" x2="1104.37" y2="950.64" id="line522" />
          <line class="cls-3" x1="527.12" y1="1132.67" x2="699.19" y2="1177.51" id="line524" />
          <line class="cls-3" x1="844.22" y1="1332.02" x2="992.29" y2="1370.61" id="line526" />
          <line class="cls-3" x1="785.86" y1="1316.82" x2="809.06" y2="1322.86" id="line528" />
          <line class="cls-3" x1="416.98" y1="1555.37" x2="527.12" y2="1132.67" id="line530" />
          <line class="cls-3" x1="1022.44" y1="1261.74" x2="912.3" y2="1684.43" id="line532" />
          <line class="cls-3" x1="814.36" y1="1207.52" x2="1022.44" y2="1261.74" id="line534" />
          <line class="cls-3" x1="990.2" y1="918.94" x2="1104.37" y2="950.64" id="line536" />
          <line class="cls-3" x1="17.33" y1="1000.53" x2="527.12" y2="1132.67" id="line538" />
          <line class="cls-3" x1="221.44" y1="912.04" x2="213.12" y2="944.33" id="line540" />
          <line class="cls-3" x1="268.19" y1="730.68" x2="232.24" y2="870.14" id="line542" />
          <line class="cls-3" x1="98.93" y1="687.4" x2="17.33" y2="1000.53" id="line544" />
          <line class="cls-3" x1="580.09" y1="812.04" x2="98.93" y2="686.53" id="line546" />
          <polyline class="cls-3" points="767.21 914.24 741.14 907.44 567.26 862.08" id="polyline548" />
          <line class="cls-3" x1="792.73" y1="921.1" x2="766.47" y2="914.25" id="line550" />
          <polyline class="cls-3" points="874.91 942.54 867.95 940.73 841.6 933.85" id="polyline552" />
          <polyline class="cls-3" points="894.12 1071.23 883.91 1068.56 845.2 1058.48" id="polyline554" />
          <line class="cls-3" x1="990.2" y1="918.94" x2="888.01" y2="892.31" id="line556" />
          <line class="cls-3" x1="933.14" y1="1137.91" x2="990.2" y2="918.94" id="line558" />
          <line class="cls-3" x1="1104.37" y1="1175.86" x2="1078.02" y2="1175.86" id="line560" />
          <line class="cls-3" x1="406.18" y1="1087.72" x2="402.91" y2="1100.28" id="line562" />
          <line class="cls-3" x1="428.89" y1="1000.53" x2="413.95" y2="1057.87" id="line564" />
          <line class="cls-3" x1="43.49" y1="900.15" x2="428.89" y2="1000.53" id="line566" />
          <line class="cls-3" x1="1022.29" y1="1261.64" x2="1052.17" y2="1269.43" id="line568" />
          <line class="cls-3" x1="524.47" y1="1025.3" x2="580.04" y2="812.21" id="line570" />
          <line class="cls-3" x1="722.77" y1="1558.7" x2="677.61" y2="1731.83" id="line572" />
          <line class="cls-3" x1="794.22" y1="1284.74" x2="732.19" y2="1522.57" id="line574" />
          <line class="cls-3" x1="814.36" y1="1207.54" x2="805.26" y2="1242.44" id="line576" />
          <line class="cls-3" x1="724.67" y1="1077.57" x2="678.54" y2="1065.54" id="line578" />
          <line class="cls-3" x1="1027.85" y1="1162.76" x2="831.38" y2="1111.51" id="line580" />
          <line class="cls-3" x1="1078.02" y1="1175.84" x2="1060.64" y2="1171.31" id="line582" />
          <line class="cls-3" x1="767.27" y1="914.25" x2="724.67" y2="1077.57" id="line584" />
          <line class="cls-3" x1="888.01" y1="892.31" x2="874.91" y2="942.54" id="line586" />
          <line class="cls-3" x1="937.38" y1="905.18" x2="894.12" y2="1071.04" id="line588" />
          <line class="cls-3" x1="464.35" y1="1009.68" x2="428.91" y2="1000.43" id="line590" />
          <line class="cls-3" x1="637.01" y1="1054.71" x2="503.78" y2="1019.96" id="line592" />
          <line class="cls-3" x1="2820.37" y1="1270.53" x2="1051.37" y2="1270.53" id="line594" />
          <line class="cls-3" x1="159.18" y1="2875.96" x2="79.02" y2="2855.07" id="line596" />
          <line class="cls-3" x1="302.61" y1="2913.34" x2="192.46" y2="2884.63" id="line598" />
          <line class="cls-3" x1="573.67" y1="2983.97" x2="352.85" y2="2926.43" id="line600" />
          <line class="cls-3" x1="498.81" y1="3271.24" x2="3.5" y2="3142.17" id="line602" />
          <line class="cls-3" x1="678.87" y1="2580.23" x2="473.05" y2="2526.6" id="line604" />
          <line class="cls-3" x1="736.5" y1="2359.08" x2="530.68" y2="2305.45" id="line606" />
          <line class="cls-3" x1="767.78" y1="2239.04" x2="616.06" y2="2199.51" id="line608" />
          <line class="cls-3" x1="471.11" y1="1978.78" x2="317.11" y2="1938.65" id="line610" />
          <line class="cls-3" x1="798.05" y1="2122.86" x2="592.23" y2="2069.23" id="line612" />
          <line class="cls-3" x1="696.9" y1="2283.28" x2="600.22" y2="2258.09" id="line614" />
          <line class="cls-3" x1="827.58" y1="2009.56" x2="621.75" y2="1955.93" id="line616" />
          <line class="cls-3" x1="883.9" y1="1793.4" x2="678.08" y2="1739.77" id="line618" />
          <line class="cls-3" x1="451.33" y1="2284.77" x2="241.18" y2="2230.01" id="line620" />
          <line class="cls-3" x1="511.63" y1="2053.36" x2="301.48" y2="1998.6" id="line622" />
          <line class="cls-3" x1="543.16" y1="1932.37" x2="333.01" y2="1877.61" id="line624" />
          <line class="cls-3" x1="562.6" y1="1857.75" x2="352.45" y2="1802.98" id="line626" />
          <line class="cls-3" x1="588.95" y1="1756.65" x2="378.8" y2="1701.89" id="line628" />
          <line class="cls-3" x1="383.67" y1="2544.42" x2="173.52" y2="2489.66" id="line630" />
          <polyline class="cls-3" points="683.59 1624.5 912.38 1684.12 573.67 2983.97" id="polyline632" />
          <line class="cls-3" x1="593.01" y1="1600.9" x2="645.9" y2="1614.68" id="line634" />
          <line class="cls-3" x1="417.06" y1="1555.05" x2="525.13" y2="1583.21" id="line636" />
          <line class="cls-3" x1="313.63" y1="1951.98" x2="417.06" y2="1555.05" id="line638" />
          <line class="cls-3" x1="78.36" y1="2854.9" x2="305.25" y2="1984.13" id="line640" />
          <line class="cls-3" x1="3.5" y1="3142.17" x2="78.36" y2="2854.9" id="line642" />
          <line class="cls-3" x1="455.42" y1="2594.27" x2="367.85" y2="2930.33" id="line644" />
          <line class="cls-3" x1="573.67" y1="2983.97" x2="498.81" y2="3271.24" id="line646" />
          <line class="cls-3" x1="520.75" y1="2343.54" x2="462.98" y2="2565.26" id="line648" />
          <line class="cls-3" x1="530.68" y1="2305.45" x2="528.46" y2="2313.95" id="line650" />
          <line class="cls-3" x1="636.45" y1="2121.26" x2="616.06" y2="2199.51" id="line652" />
          <line class="cls-3" x1="697.32" y1="2283.49" x2="681.72" y2="2343.36" id="line654" />
          <line class="cls-3" x1="646.33" y1="2083.32" x2="643.7" y2="2093.43" id="line656" />
          <line class="cls-3" x1="613.44" y1="1987.83" x2="592.23" y2="2069.23" id="line658" />
          <line class="cls-3" x1="628.03" y1="1931.86" x2="621.75" y2="1955.93" id="line660" />
          <line class="cls-3" x1="660.7" y1="1806.48" x2="636.02" y2="1901.18" id="line662" />
          <line class="cls-3" x1="679.38" y1="1734.8" x2="667.88" y2="1778.93" id="line664" />
          <line class="cls-3" x1="585.31" y1="1770.6" x2="627.21" y2="1609.81" id="line666" />
          <line class="cls-3" x1="558.02" y1="1875.34" x2="577.61" y2="1800.14" id="line668" />
          <line class="cls-3" x1="533.06" y1="1971.12" x2="550.41" y2="1904.52" id="line670" />
          <line class="cls-3" x1="509.01" y1="2063.43" x2="523.5" y2="2007.79" id="line672" />
          <line class="cls-3" x1="477.19" y1="2185.52" x2="501.1" y2="2093.77" id="line674" />
          <line class="cls-3" x1="449.11" y1="2293.27" x2="469.96" y2="2213.28" id="line676" />
          <line class="cls-3" x1="383.63" y1="2544.58" x2="441.26" y2="2323.41" id="line678" />
          <line class="cls-3" x1="288.5" y1="2909.66" x2="376.13" y2="2573.34" id="line680" />
        </g>
      </g>
    </g>
  </g>
</svg>
