<?xml version="1.0" encoding="UTF-8" standalone="no"?>
<svg viewBox="0 0 5145.96 3594.03" version="1.1" id="svg353">

   <defs id="defs4">
      <style id="style2">.cls-1{fill:#CFCFDE;}.cls-2{fill:#fcfcfc;}.rooms{fill:#A0A0B4;}.cls-4{fill:#ecabd3;}.cls-5{fill:none;stroke:#242446;stroke-linecap:round;stroke-linejoin:round;stroke-width:12px;}</style>
   </defs>
   <g id="Layer_2" data-name="Layer 2">
      <g id="groundFloor">
         <g id="Main">
            <g id="Background">
               <path class="cls-1" d="M3966,0H2854.61a46,46,0,0,0-46,46v854.3a46,46,0,0,1-46,46H1179.24a45.9,45.9,0,0,1-11.6-1.48L173.15,685.65a46,46,0,0,0-56.09,32.9l-95.36,366a46,46,0,0,0,32.9,56.09l417.3,108.74a46,46,0,0,1,32.91,56.1L1.5,3237a46,46,0,0,0,32.9,56.1l560.39,146a46,46,0,0,0,56.1-32.9l509.28-1954.45a46,46,0,0,1,44.5-34.39h1558a46,46,0,0,1,46,46V3107.41a46,46,0,0,0,28.41,42.5L3902.4,3590.5A46,46,0,0,0,3966,3548h0V1597.54a46,46,0,0,1,46-46H5100a46,46,0,0,0,46-46V46a46,46,0,0,0-46-46Z" id="path6" />
            </g>
            <g id="Floor">
               <polygon class="cls-2" points="4050.63 79.64 4050.63 959.56 4050.63 1026.78 4050.63 1031.56 3654.85 1031.56 3654.85 1026.78 3654.29 1026.78 3654.29 814.67 3872.04 814.67 3872.04 79.64 3872.04 79 2899.29 79 2899.29 79.64 2899.29 814.67 3114.85 814.67 3114.85 1026.78 1195.77 1026.78 971.93 968.45 958.85 1018.65 650.92 938.42 664.01 888.18 183.07 762.81 101.26 1076.67 582.2 1202.03 582.38 1201.34 611.04 1208.81 87.41 3218.32 582.66 3347.38 1106.3 1337.86 1135.29 1345.42 1135.29 1346.67 2899.29 1346.67 2899.29 1578 3010.4 1578 3010.4 1591.97 2986.94 1615.49 3010.4 1638.96 3010.4 1639.01 2986.9 1662.49 3010.4 1686 3010.4 1795 2899.29 1795 2899.29 2878 3002.29 2878 3002.29 2960 3002.29 3109 3501.96 3315.36 3501.96 3316.84 3505.54 3316.84 3725.83 3407.82 3726.29 3199.57 3725.83 3199.42 3725.83 2878 3872.04 2878 3872.04 1795 3654.29 1795 3654.29 1359.42 4050.63 1359.42 4178.29 1359.42 4178.29 1467.42 5056.63 1467.42 5056.63 1359.42 5056.63 187.64 5056.63 79.64 4050.63 79.64" id="polygon9" />
            </g>
            <g id="Classes">
               <rect class="rooms" x="1188.29" y="1026.78" width="423.44" height="225.22" id="classroom-36" />
               <rect class="rooms" x="1192.2606" y="1131.8062" width="213.061" height="324.40009" transform="rotate(14.452428)" id="classroom-38" style="stroke-width:1.0017" />
               <rect class="rooms" x="882.9" y="1308.96" width="212.69" height="113.23" transform="translate(376.31 -205.32) rotate(14.61)" id="rect16" />
               <rect class="rooms" x="107.9" y="1024.83" width="398.26" height="103.73" transform="translate(281.42 -42.63) rotate(14.61)" id="rect18" />
               <rect class="rooms" x="147.2" y="821.86" width="497.02" height="220.66" transform="matrix(0.97, 0.25, -0.25, 0.97, 247.85, -69.66)" id="classroom-42" />
               <polygon class="rooms" points="1073.53 996.9 1016.91 1214.19 1049.51 1222.69 1049.51 1222.69 1161.92 1251.98 1188.11 1251.98 1188.11 1026.76 1073.53 996.9" id="classroom-37" />
               <rect class="rooms" x="626.55" y="961.55" width="206.67" height="168.84" transform="translate(287.33 -150.25) rotate(14.61)" id="41" />
               <rect class="rooms" x="1611.74" y="1026.78" width="429.78" height="225.22" id="classroom-32" />
               <rect class="rooms" x="2041.52" y="1026.78" width="424" height="225.22" id="classroom-30" />
               <rect class="rooms" x="2465.52" y="1026.78" width="324" height="225.22" id="rect30" />
               <rect id="classroom-27" class="rooms" x="2789.52" y="1026.78" width="319.11" height="225.22" />
               <line class="rooms" x1="3176.63" y1="1346.67" x2="3217.96" y2="1346.67" id="line33" />
               <polygon class="rooms" points="3217.82 1346.67 3175.84 1346.67 2899.29 1346.67 2899.29 1578 3227.29 1578 3227.29 1346.67 3217.82 1346.67" id="classroom-26" />
               <polygon class="rooms" points="3203.15 1192.44 3190.69 1192.44 3108.63 1192.44 3108.63 1251.61 3205.96 1251.61 3205.96 1192.44 3203.15 1192.44" id="polygon37" />
               <polygon class="rooms" points="3116.36 1578 3102.4 1578 3010.4 1578 3010.4 1591.97 2986.94 1615.49 3010.4 1638.99 2986.9 1662.49 3010.4 1686 3119.51 1686 3119.51 1578 3116.36 1578" id="polygon39" />
               <polygon class="rooms" points="3648.02 1688.44 3620.25 1688.44 3437.29 1688.44 3437.29 1795 3654.29 1795 3654.29 1688.44 3648.02 1688.44" id="polygon41" />
               <polygon class="rooms" points="3326.88 1795 3311.25 1795 3208.29 1795 3208.29 1929.78 3330.4 1929.78 3330.4 1795 3326.88 1795" id="polygon43" />
               <polygon class="rooms" points="3859.48 1795 3803.85 1795 3437.29 1795 3437.29 2001.33 3872.04 2001.33 3872.04 1795 3859.48 1795" id="classroom-1" />
               <polygon class="rooms" points="3199.36 1795 3159.82 1795 2899.29 1795 2899.29 2001.33 3208.29 2001.33 3208.29 1795 3199.36 1795" id="polygon47" />
               <polygon class="rooms" points="3859.12 2001.33 3803.53 2001.33 3437.29 2001.33 3437.29 2222 3871.67 2222 3871.67 2001.33 3859.12 2001.33" id="classroom-2" />
               <polygon class="rooms" points="3863.66 2222 3826.54 2222 3581.96 2222 3581.96 2645.83 3872.04 2645.83 3872.04 2222 3863.66 2222" id="polygon51" />
               <polygon class="rooms" points="3577.78 2222 3559.27 2222 3437.29 2222 3437.29 2537 3581.96 2537 3581.96 2222 3577.78 2222" id="polygon53" />
               <polygon class="rooms" points="3859.48 2645.83 3803.85 2645.83 3437.29 2645.83 3437.29 2878 3872.04 2878 3872.04 2645.83 3859.48 2645.83" id="polygon55" />
               <polyline class="rooms" points="3324.68 2113.33 3330.4 2113.33 3330.4 2432 3132.29 2432 3132.29 2113.33 3299.33 2113.33" id="classroom-10" />
               <polygon class="rooms" points="3237.24 2432 3192.7 2432 2899.29 2432 2899.29 2537 3247.29 2537 3247.29 2432 3237.24 2432" id="polygon59" />
               <polygon class="rooms" points="3722.12 2878 3703.65 2878 3581.96 2878 3581.96 3007.18 3726.29 3007.18 3726.29 2878 3722.12 2878" id="polygon61" />
               <polygon class="rooms" points="3722.12 3007.65 3703.65 3007.65 3581.96 3007.65 3581.96 3111.96 3726.29 3111.96 3726.29 3007.65 3722.12 3007.65" id="polygon63" />
               <polygon class="rooms" points="3722.12 3112.43 3703.65 3112.43 3581.96 3112.43 3581.96 3222.78 3726.29 3222.78 3726.29 3112.43 3722.12 3112.43" id="polygon65" />
               <polygon class="rooms" points="3722.12 3222.78 3703.65 3222.78 3581.96 3222.78 3581.96 3348.26 3725.83 3407.82 3726.29 3222.78 3722.12 3222.78" id="polygon67" />
               <polygon class="rooms" points="3317.95 2537 3262.78 2537 2899.29 2537 2899.29 2878 3330.4 2878 3330.4 2537 3317.95 2537" id="classroom-8" />
               <polygon class="rooms" points="3648.02 1590 3620.25 1590 3437.29 1590 3437.29 1688.44 3654.29 1688.44 3654.29 1590 3648.02 1590" id="polygon71" />
               <polygon class="rooms" points="3317.95 2001.33 3262.78 2001.33 2899.29 2001.33 2899.29 2432 3132.29 2432 3132.29 2113.33 3299.33 2113.33 3324.68 2113.33 3330.4 2113.33 3330.4 2001.33 3317.95 2001.33" id="library" />
               <polygon class="rooms" points="3648.02 1360 3620.25 1360 3437.29 1360 3437.29 1590 3654.29 1590 3654.29 1360 3648.02 1360" id="polygon75" />
               <polygon class="rooms" points="3648.02 1256 3620.25 1256 3437.29 1256 3437.29 1360 3654.29 1360 3654.29 1256 3648.02 1256" id="polygon77" />
               <polygon class="rooms" points="3648.02 1139.39 3620.25 1139.39 3437.29 1139.39 3437.29 1256 3654.29 1256 3654.29 1139.39 3648.02 1139.39" id="polygon79" />
               <polygon class="rooms" points="3648.02 928.33 3620.25 928.33 3437.29 928.33 3437.29 1031.56 3654.29 1031.56 3654.29 928.33 3648.02 928.33" id="polygon81" />
               <polygon class="rooms" points="3648.02 814.67 3620.25 814.67 3437.29 814.67 3437.29 928.33 3654.29 928.33 3654.29 814.67 3648.02 814.67" id="polygon83" />
               <polygon class="rooms" points="4347.81 79.64 4336.8 79.64 4264.29 79.64 4264.29 1467.19 4350.29 1467.19 4350.29 79.64 4347.81 79.64" id="polygon85" />
               <polygon class="rooms" points="5036.22 79.64 4945.83 79.64 4350.29 79.64 4350.29 1467.19 5056.63 1467.19 5056.63 79.64 5036.22 79.64" id="large-hall" />
               <polygon class="rooms" points="3758.2 1139.39 3744.51 1139.39 3654.29 1139.39 3654.29 1359.42 3761.29 1359.42 3761.29 1139.39 3758.2 1139.39" id="polygon89" />
               <polygon class="rooms" points="3892.07 1139.39 3874.84 1139.39 3761.29 1139.39 3761.29 1359.81 3895.96 1359.81 3895.96 1139.39 3892.07 1139.39" id="polygon91" />
               <polygon class="rooms" points="3971.06 1139.39 3961.16 1139.39 3895.96 1139.39 3895.96 1359.42 3973.29 1359.42 3973.29 1139.39 3971.06 1139.39" id="polygon93" />
               <polygon class="rooms" points="4048.39 1139.39 4038.5 1139.39 3973.29 1139.39 3973.29 1359.42 4050.63 1359.42 4050.63 1139.39 4048.39 1139.39" id="polygon95" />
               <polygon class="rooms" points="4174.6 936.25 4158.27 936.25 4050.63 936.25 4050.63 1031.56 4178.29 1031.56 4178.29 936.25 4174.6 936.25" id="polygon97" />
               <polygon class="rooms" points="4174.6 766.39 4158.27 766.39 4050.63 766.39 4050.63 936.25 4178.29 936.25 4178.29 766.39 4174.6 766.39" id="polygon99" />
               <polygon class="rooms" points="4174.6 506 4158.27 506 4050.63 506 4050.63 766.39 4178.29 766.39 4178.29 506 4174.6 506" id="polygon101" />
               <polygon class="rooms" points="4174.6 79.64 4158.27 79.64 4050.63 79.64 4050.63 506 4178.29 506 4178.29 79.64 4174.6 79.64" id="polygon103" />
               <polygon class="rooms" points="3330.2 700.33 3319.43 700.33 3248.51 700.33 3248.51 753.67 3332.63 753.67 3332.63 700.33 3330.2 700.33" id="polygon105" />
               <polygon class="rooms" points="3326.38 540 3298.69 540 3116.29 540 3116.29 699.33 3332.63 699.33 3332.63 540 3326.38 540" id="polygon107" />
               <polygon class="rooms" points="3081.69,79.64 2899.29,79.64 2899.29,376.67 3115.63,376.67 3115.63,79.64 3109.38,79.64 " id="polygon109" transform="translate(0.33)" />
               <polygon class="rooms" points="3326.04 434.33 3298.36 434.33 3115.96 434.33 3115.96 540 3332.29 540 3332.29 434.33 3326.04 434.33" id="polygon111" />
               <polygon class="rooms" points="3330.2 753.67 3319.43 753.67 3248.51 753.67 3248.51 814.67 3332.63 814.67 3332.63 753.67 3330.2 753.67" id="polygon113" />
               <polygon class="rooms" points="3238.42 699.67 3193.73 699.67 3115.96 699.67 3115.96 376.67 3109.7 376.67 3081.97 376.67 2899.29 376.67 2899.29 699.67 2899.29 716 2899.29 814.67 3248.51 814.67 3248.51 699.67 3238.42 699.67" id="polygon115" />
               <polygon class="rooms" points="3434.27 79.64 3420.88 79.64 3332.63 79.64 3332.63 223.42 3437.29 223.42 3437.29 79.64 3434.27 79.64" id="polygon117" />
               <polygon id="_Path_" data-name="&lt;Path&gt;" class="rooms" points="3328.89 79.64 3313.84 79.64 3214.63 79.64 3214.63 187.64 3332.29 187.64 3332.29 79.64 3328.89 79.64" />
               <polygon class="rooms" points="3326.04 187.64 3298.36 187.64 3214.63 187.64 3214.63 79.64 3211.78 79.64 3199.2 79.64 3116.29 79.64 3116.29 187.64 3115.96 187.64 3115.96 434.33 3332.29 434.33 3332.29 187.64 3326.04 187.64" id="polygon120" />
               <polygon class="rooms" points="3859.48 79.64 3803.85 79.64 3437.29 79.64 3437.29 814.67 3872.04 814.67 3872.04 79.64 3859.48 79.64" id="small-hall" />
               <polygon class="rooms" points="3002.29 2878 3002.29 3109 3132.29 3162.69 3132.29 2878 3002.29 2878" id="polygon124" />
               <polygon class="rooms" points="3348.13 3075.59 3310.37 3236.12 3507.46 3316.84 3507.46 3075.07 3348.13 3075.59" id="polygon126" />
               <rect class="rooms" x="126.21" y="2667.21" width="377.44" height="217.17" transform="translate(-2450.58 2380.61) rotate(-75.39)" id="rect128" />
               <rect id="canteen" class="rooms" x="224.08" y="2883.28" width="296.86" height="511.85" transform="translate(-2759.19 2708.1) rotate(-75.39)" />
               <rect class="rooms" x="-2421.3896" y="889.99994" width="268.77576" height="217.53888" transform="rotate(-75.547572)" id="rect131" style="stroke-width:1.0017" />
               <rect class="rooms" x="340.85" y="2109.36" width="238.88" height="217.17" transform="translate(-1802.05 2104.1) rotate(-75.39)" id="classroom-1i" />
               <rect class="rooms" x="493.17" y="1835.23" width="77.11" height="217.17" transform="translate(-1483.35 1968.21) rotate(-75.39)" id="rect135" />
               <rect class="rooms" x="-1606.2711" y="891.82861" width="151.99774" height="217.53888" transform="rotate(-75.547572)" id="rect137" style="stroke-width:1.0017" />
               <rect class="rooms" x="502.38" y="1747.37" width="104.48" height="217.17" transform="translate(-1381.21 1924.66) rotate(-75.39)" id="rect139" />
               <rect class="rooms" x="823.62" y="1682.94" width="110.45" height="212.7" transform="translate(-1074.24 2188.55) rotate(-75.39)" id="rect141" />
               <rect class="rooms" x="724.38" y="1843.58" width="225.2" height="212.7" transform="translate(-1260.98 2268.17) rotate(-75.39)" id="rect143" />
               <rect class="rooms" x="735.29" y="2009.19" width="117.08" height="212.7" transform="translate(-1453.52 2350.26) rotate(-75.39)" id="rect145" />
               <rect class="rooms" x="730.95" y="2158.93" width="120.06" height="156.79" transform="translate(-1573.5 2438.58) rotate(-75.39)" id="rect147" />
               <rect class="rooms" x="-2798.5798" y="1187.8168" width="417.92868" height="213.06128" transform="rotate(-75.547572)" id="classroom-2i" style="stroke-width:1.0017" />
               <rect class="rooms" x="574.43" y="2412.63" width="228.54" height="212.7" transform="translate(-1922.54 2550.24) rotate(-75.39)" id="classroom-3i" />
            </g>
            <g id="Stairs">
               <rect class="cls-4" x="3330.4" y="2746.67" width="42.22" height="131.33" id="rect154" />
               <rect class="cls-4" x="3165.29" y="1105.83" width="60.33" height="57.89" id="rect156" />
               <rect class="cls-4" x="4105.52" y="1139.39" width="71.44" height="62.31" id="rect158" />
               <polygon class="cls-4" points="3225.63 1026.78 3108.63 1026.78 3108.63 1068 3108.63 1081.78 3108.63 1192.44 3165.29 1192.44 3165.29 1081.78 3225.63 1081.78 3225.63 1026.78" id="polygon160" />
               <polygon class="cls-4" points="4107.29 1305 4107.29 1139.39 4050.63 1139.39 4050.63 1305 4050.63 1308.64 4050.63 1360 4178.29 1360 4178.29 1305 4107.29 1305" id="polygon162" />
               <polygon class="cls-4" points="796.13 2300.7 796.13 2300.7 699.98 2275.65 684.65 2334.46 780.8 2359.51 764.85 2420.74 820.42 2435.22 851.7 2315.18 796.13 2300.7" id="polygon164" />
               <polygon class="cls-4" points="513.5 1978.8 417.35 1953.74 401.03 2014.79 555.03 2054.92 570.6 1993.68 513.5 1978.8" id="polygon166" />
               <polygon class="cls-4" points="452.37 2028.12 437.28 2088.26 540.25 2115.09 555.03 2054.92 452.37 2028.12" id="polygon168" />
               <polygon class="cls-4" points="1021.32 981.32 978.05 1147.37 929.12 1134.62 915.3 1187.65 964.23 1200.4 964.21 1200.46 1016.91 1214.19 1074.01 995.05 1021.32 981.32" id="polygon170" />
               <polygon class="cls-4" points="3370.79 2979.02 3507.46 2979.02 3507.46 3075.07 3348.13 3075.59 3370.79 2979.02" id="polygon172" />
               <polygon class="cls-4" points="3132.29 2993.5 3132.29 3162.69 3222.29 3199.57 3222.29 2993.5 3132.29 2993.5" id="polygon174" />
            </g>
            <g id="classroom-34">
               <polyline class="cls-5" points="3108.63 1026.78 3108.63 1139.39 3108.63 1252" id="polyline177" />
               <polyline class="cls-5" points="3115.96 901.5 3115.96 921.25 3115.96 1026.78" id="polyline179" />
               <line class="cls-5" x1="3115.96" y1="815.72" x2="3115.96" y2="854.83" id="line181" />
               <polyline class="cls-5" points="2789.52 1026.78 2789.52 1139.39 2789.52 1252" id="polyline183" />
               <line class="cls-5" x1="2680.18" y1="1227.78" x2="2680.18" y2="1252" id="line185" />
               <polyline class="cls-5" points="2680.18 1026.78 2680.18 1139.39 2680.18 1193.78" id="polyline187" />
               <polyline class="cls-5" points="2465.96 1026.78 2465.96 1139.39 2465.96 1252" id="polyline189" />
               <polyline class="cls-5" points="2041.52 1026.78 2041.52 1139.39 2041.52 1252" id="polyline191" />
               <polyline class="cls-5" points="1611.74 1026.78 1611.74 1139.39 1611.74 1252" id="polyline193" />
               <line class="cls-5" x1="1505.96" y1="1207" x2="1505.96" y2="1252" id="line195" />
               <polyline class="cls-5" points="1505.96 1026.78 1505.96 1139.39 1505.96 1174" id="polyline197" />
               <polyline class="cls-5" points="1420.63 1252 1188.29 1252 1188.29 1026.78 3108.63 1026.78" id="polyline199" />
               <line class="cls-5" x1="1969.46" y1="1252" x2="1467.63" y2="1252" id="line201" />
               <line class="cls-5" x1="2283.74" y1="1252" x2="2008.13" y2="1252" id="line203" />
               <line class="cls-5" x1="2411.96" y1="1252" x2="2327.29" y2="1252" id="line205" />
               <line class="cls-5" x1="2606.29" y1="1252" x2="2454.29" y2="1252" id="line207" />
               <line class="cls-5" x1="3036.63" y1="1252" x2="2643.52" y2="1252" id="line209" />
               <line class="cls-5" x1="3108.63" y1="1252" x2="3072.96" y2="1252" id="line211" />
               <line class="cls-5" x1="2899.29" y1="814.67" x2="2899.29" y2="79.64" id="line213" />
               <line class="cls-5" x1="2899.29" y1="1578" x2="2899.29" y2="1346.67" id="line215" />
               <line class="cls-5" x1="2899.29" y1="2878" x2="2899.29" y2="1795" id="line217" />
               <line class="cls-5" x1="3115.96" y1="699.33" x2="3115.96" y2="79.64" id="line219" />
               <line class="cls-5" x1="3248.51" y1="814.67" x2="3248.51" y2="699.67" id="line221" />
               <line class="cls-5" x1="3332.63" y1="98.81" x2="3332.63" y2="79.64" id="line223" />
               <line class="cls-5" x1="3332.63" y1="561" x2="3332.63" y2="165.81" id="line225" />
               <line class="cls-5" x1="3332.63" y1="711.33" x2="3332.63" y2="588" id="line227" />
               <line class="cls-5" x1="3214.63" y1="187.64" x2="3214.63" y2="79.64" id="line229" />
               <line class="cls-5" x1="3332.63" y1="753.67" x2="3332.63" y2="744.17" id="line231" />
               <line class="cls-5" x1="3332.63" y1="814.67" x2="3332.63" y2="788.33" id="line233" />
               <line class="cls-5" x1="3437.29" y1="100.31" x2="3437.29" y2="79.64" id="line235" />
               <line class="cls-5" x1="3437.29" y1="748.53" x2="3437.29" y2="164.81" id="line237" />
               <line class="cls-5" x1="3437.29" y1="814.67" x2="3437.29" y2="791.33" id="line239" />
               <line class="cls-5" x1="3165.63" y1="814.67" x2="2899.29" y2="814.67" id="line241" />
               <line class="cls-5" x1="3055.96" y1="376.67" x2="2899.29" y2="376.67" id="line243" />
               <line class="cls-5" x1="3115.96" y1="376.67" x2="3092.4" y2="376.67" id="line245" />
               <line class="cls-5" x1="3332.63" y1="699.33" x2="3116.29" y2="699.33" id="line247" />
               <line class="cls-5" x1="3332.63" y1="540" x2="3116.29" y2="540" id="line249" />
               <line class="cls-5" x1="3332.29" y1="434.33" x2="3115.96" y2="434.33" id="line251" />
               <line class="cls-5" x1="3332.29" y1="187.64" x2="3214.63" y2="187.64" id="line253" />
               <line class="cls-5" x1="3332.63" y1="753.67" x2="3248.51" y2="753.67" id="line255" />
               <line class="cls-5" x1="3353.79" y1="814.67" x2="3248.52" y2="814.67" id="line257" />
               <line class="cls-5" x1="3872.04" y1="814.67" x2="3420.46" y2="814.67" id="line259" />
               <line class="cls-5" x1="3872.04" y1="79.64" x2="3872.04" y2="814.67" id="line261" />
               <line class="cls-5" x1="4050.63" y1="79.64" x2="4050.63" y2="1058" id="line263" />
               <line class="cls-5" x1="4050.63" y1="1110.17" x2="4050.63" y2="1139.39" id="line265" />
               <line class="cls-5" x1="5056.63" y1="79.64" x2="5056.63" y2="1467.19" id="line267" />
               <line class="cls-5" x1="4350.29" y1="79.64" x2="4350.29" y2="1467.19" id="line269" />
               <line class="cls-5" x1="4264.29" y1="1083.67" x2="4264.29" y2="1428.22" id="line271" />
               <line class="cls-5" x1="4264.29" y1="703.56" x2="4264.29" y2="1037" id="line273" />
               <line class="cls-5" x1="4264.29" y1="376.67" x2="4264.29" y2="654" id="line275" />
               <line class="cls-5" x1="4264.29" y1="112.33" x2="4264.29" y2="333.33" id="line277" />
               <line class="cls-5" x1="4178.29" y1="1012" x2="4178.29" y2="1031.56" id="line279" />
               <line class="cls-5" x1="4178.29" y1="907.11" x2="4178.29" y2="977.33" id="line281" />
               <line class="cls-5" x1="3761.29" y1="1139.39" x2="3761.29" y2="1355" id="line283" />
               <line class="cls-5" x1="3895.96" y1="1196" x2="3895.96" y2="1359.81" id="line285" />
               <line class="cls-5" x1="3895.96" y1="1144.19" x2="3895.96" y2="1167.81" id="line287" />
               <line class="cls-5" x1="3973.29" y1="1196" x2="3973.29" y2="1359.42" id="line289" />
               <line class="cls-5" x1="3973.29" y1="1143.81" x2="3973.29" y2="1167.81" id="line291" />
               <line class="cls-5" x1="4176.96" y1="1139.39" x2="4176.96" y2="1156.89" id="line293" />
               <line class="cls-5" x1="4176.96" y1="1186.22" x2="4176.96" y2="1201.69" id="line295" />
               <line class="cls-5" x1="4050.63" y1="1139.39" x2="4050.63" y2="1355" id="line297" />
               <line class="cls-5" x1="4178.29" y1="737.78" x2="4178.29" y2="874.67" id="line299" />
               <line class="cls-5" x1="4178.29" y1="79.64" x2="4178.29" y2="703.56" id="line301" />
               <line class="cls-5" x1="3872.04" y1="1795" x2="3872.04" y2="2878" id="line303" />
               <line class="cls-5" x1="3437.29" y1="79.64" x2="3872.04" y2="79.64" id="line305" />
               <line class="cls-5" x1="4229.96" y1="79.64" x2="5056.63" y2="79.64" id="line307" />
               <line class="cls-5" x1="4050.63" y1="79.64" x2="4201.29" y2="79.64" id="line309" />
               <line class="cls-5" x1="3332.63" y1="79.64" x2="3437.29" y2="79.64" id="line311" />
               <line class="cls-5" x1="3395.46" y1="223.42" x2="3437.29" y2="223.42" id="line313" />
               <line class="cls-5" x1="3332.63" y1="223.42" x2="3356.29" y2="223.42" id="line315" />
               <line class="cls-5" x1="3101.52" y1="79.64" x2="3332.63" y2="79.64" id="line317" />
               <line class="cls-5" x1="2899.29" y1="79.64" x2="3073.07" y2="79.64" id="line319" />
               <line class="cls-5" x1="3437.29" y1="971" x2="3437.29" y2="901.5" id="line321" />
               <line class="cls-5" x1="4178.29" y1="1467.19" x2="4178.29" y2="1360" id="line323" />
               <line class="cls-5" x1="4106.85" y1="1305" x2="4106.85" y2="1139.39" id="line325" />
               <line class="cls-5" x1="3437.29" y1="1031.56" x2="3437.29" y2="1009" id="line327" />
               <line class="cls-5" x1="3437.29" y1="1199.78" x2="3437.29" y2="1139.39" id="line329" />
               <line class="cls-5" x1="3437.29" y1="1302" x2="3437.29" y2="1232.22" id="line331" />
               <line class="cls-5" x1="3437.29" y1="1423.78" x2="3437.29" y2="1336.17" id="line333" />
               <line class="cls-5" x1="3437.29" y1="1648.44" x2="3437.29" y2="1454.67" id="line335" />
               <line class="cls-5" x1="3437.29" y1="1748.44" x2="3437.29" y2="1682.89" id="line337" />
               <line class="cls-5" x1="3010.4" y1="1713.33" x2="3010.4" y2="1686" id="line339" />
               <line class="cls-5" x1="3010.4" y1="1591.97" x2="3010.4" y2="1578" id="line341" />
               <line class="cls-5" x1="3010.4" y1="1686" x2="2986.9" y2="1662.49" id="line343" />
               <line class="cls-5" x1="3010.43" y1="1638.99" x2="2986.94" y2="1615.49" id="line345" />
               <line class="cls-5" x1="2986.9" y1="1662.49" x2="3010.4" y2="1638.99" id="line347" />
               <line class="cls-5" x1="2986.94" y1="1615.49" x2="3010.46" y2="1591.97" id="line349" />
               <line class="cls-5" x1="3010.4" y1="1795" x2="3010.4" y2="1761.56" id="line351" />
               <line class="cls-5" x1="3119.52" y1="1612.89" x2="3119.52" y2="1578" id="line353" />
               <line class="cls-5" x1="3119.52" y1="1713.33" x2="3119.52" y2="1651.33" id="line355" />
               <line class="cls-5" x1="3119.52" y1="1795" x2="3119.52" y2="1761.56" id="line357" />
               <line class="cls-5" x1="3437.29" y1="1962.94" x2="3437.29" y2="1781.33" id="line359" />
               <line class="cls-5" x1="3437.29" y1="2049.33" x2="3437.29" y2="1990" id="line361" />
               <line class="cls-5" x1="3437.29" y1="2262.44" x2="3437.29" y2="2083.44" id="line363" />
               <line class="cls-5" x1="3437.29" y1="2537" x2="3437.29" y2="2289.33" id="line365" />
               <line class="cls-5" x1="3437.29" y1="2878" x2="3437.29" y2="2645.83" id="line367" />
               <line class="cls-5" x1="3330.4" y1="1813.67" x2="3330.4" y2="1795" id="line369" />
               <line class="cls-5" x1="3330.4" y1="1929.78" x2="3330.4" y2="1847.5" id="line371" />
               <line class="cls-5" x1="3208.29" y1="1949.22" x2="3208.29" y2="1795.06" id="line373" />
               <line class="cls-5" x1="3208.29" y1="2001" x2="3208.29" y2="1979" id="line375" />
               <line class="cls-5" x1="3132.29" y1="2432" x2="3132.29" y2="2113.33" id="line377" />
               <line class="cls-5" x1="3581.96" y1="2545.17" x2="3581.96" y2="2222" id="line379" />
               <line class="cls-5" x1="3581.96" y1="2644.33" x2="3581.96" y2="2574.83" id="line381" />
               <line class="cls-5" x1="3247.29" y1="2479.33" x2="3247.29" y2="2432" id="line383" />
               <line class="cls-5" x1="3247.29" y1="2537" x2="3247.29" y2="2512.89" id="line385" />
               <line class="cls-5" x1="3002.29" y1="3109" x2="3002.29" y2="2878" id="line387" />
               <line class="cls-5" x1="3725.83" y1="3407.82" x2="3002.29" y2="3109" id="line389" />
               <line class="cls-5" x1="3132.29" y1="2905.78" x2="3132.29" y2="2878" id="line391" />
               <line class="cls-5" x1="3132.29" y1="3162.69" x2="3132.29" y2="2936" id="line393" />
               <line class="cls-5" x1="3222.29" y1="3199.57" x2="3222.29" y2="2993.5" id="line395" />
               <line class="cls-5" x1="3726.29" y1="3407.82" x2="3726.29" y2="2878" id="line397" />
               <line class="cls-5" x1="3581.96" y1="2922" x2="3581.96" y2="2878" id="line399" />
               <line class="cls-5" x1="3581.96" y1="3022.67" x2="3581.96" y2="2948.83" id="line401" />
               <line class="cls-5" x1="3372.63" y1="2878" x2="3372.63" y2="2746.67" id="line403" />
               <line class="cls-5" x1="3581.96" y1="3144.89" x2="3581.96" y2="3052.5" id="line405" />
               <line class="cls-5" x1="3507.46" y1="3316.84" x2="3507.46" y2="3075.33" id="line407" />
               <line class="cls-5" x1="3581.96" y1="3241.22" x2="3581.96" y2="3172.33" id="line409" />
               <line class="cls-5" x1="3370.79" y1="2979.02" x2="3507.46" y2="2978.57" id="line411" />
               <line class="cls-5" x1="3310.37" y1="3236.12" x2="3370.79" y2="2979.07" id="line413" />
               <line class="cls-5" x1="3348.13" y1="3075.59" x2="3507.46" y2="3075.07" id="line415" />
               <line class="cls-5" x1="3581.96" y1="3007.65" x2="3726.29" y2="3007.18" id="line417" />
               <line class="cls-5" x1="3581.96" y1="3112.43" x2="3726.29" y2="3111.96" id="line419" />
               <line class="cls-5" x1="3581.96" y1="3223.25" x2="3726.29" y2="3222.78" id="line421" />
               <line class="cls-5" x1="3581.96" y1="3348.27" x2="3581.96" y2="3267.78" id="line423" />
               <line class="cls-5" x1="3330.4" y1="2046.44" x2="3330.4" y2="2001.33" id="line425" />
               <line class="cls-5" x1="3330.4" y1="2152" x2="3330.4" y2="2083.44" id="line427" />
               <line class="cls-5" x1="3330.4" y1="2432" x2="3330.4" y2="2183.17" id="line429" />
               <line class="cls-5" x1="3330.4" y1="2878" x2="3330.4" y2="2537" id="line431" />
               <line class="cls-5" x1="3354.63" y1="1795" x2="2899.29" y2="1795" id="line433" />
               <line class="cls-5" x1="3654.29" y1="1795" x2="3412.63" y2="1795" id="line435" />
               <line class="cls-5" x1="3330.4" y1="2001.33" x2="2899.29" y2="2001.33" id="line437" />
               <line class="cls-5" x1="3330.4" y1="1929.78" x2="3208.29" y2="1929.78" id="line439" />
               <line class="cls-5" x1="3330.4" y1="2113.33" x2="3132.29" y2="2113.33" id="line441" />
               <line class="cls-5" x1="3872.04" y1="2001.33" x2="3437.29" y2="2001.33" id="line443" />
               <line class="cls-5" x1="3872.04" y1="2222" x2="3437.29" y2="2222" id="line445" />
               <line class="cls-5" x1="3581.96" y1="2537" x2="3411.96" y2="2537" id="line447" />
               <line class="cls-5" x1="3872.04" y1="2645.83" x2="3437.29" y2="2645.83" id="line449" />
               <line class="cls-5" x1="3872.04" y1="1795" x2="3654.29" y2="1795" id="line451" />
               <line class="cls-5" x1="3330.4" y1="2432" x2="2899.29" y2="2432" id="line453" />
               <line class="cls-5" x1="3278.18" y1="2537" x2="2899.29" y2="2537" id="line455" />
               <line class="cls-5" x1="3358.63" y1="2537" x2="3313.74" y2="2537" id="line457" />
               <line class="cls-5" x1="3372.63" y1="2878" x2="2899.29" y2="2878" id="line459" />
               <line class="cls-5" x1="3872.04" y1="2878" x2="3437.29" y2="2878" id="line461" />
               <line class="cls-5" x1="3119.52" y1="1686" x2="3010.4" y2="1686" id="line463" />
               <line class="cls-5" x1="3654.29" y1="1139.39" x2="3654.29" y2="1795" id="line465" />
               <polyline class="cls-5" points="3437.29 867 3437.29 814.67 3654.29 814.67 3654.29 1031.56" id="polyline467" />
               <line class="cls-5" x1="2904.29" y1="1346.67" x2="3178.79" y2="1346.67" id="line469" />
               <polyline class="cls-5" points="3218.49 1346.67 3227.29 1346.67 3227.29 1578 2899.29 1578" id="polyline471" />
               <line class="cls-5" x1="3108.63" y1="1252" x2="3226.4" y2="1252" id="line473" />
               <line class="cls-5" x1="3205.96" y1="1192.44" x2="3108.63" y2="1192.44" id="line475" />
               <line class="cls-5" x1="3225.63" y1="1081.78" x2="3165.29" y2="1081.5" id="line477" />
               <line class="cls-5" x1="3225.63" y1="1105.83" x2="3165.29" y2="1105.56" id="line479" />
               <line class="cls-5" x1="3225.63" y1="1163.71" x2="3166.86" y2="1163.57" id="line481" />
               <line class="cls-5" x1="3165.29" y1="1081.5" x2="3165.29" y2="1192.44" id="line483" />
               <line class="cls-5" x1="3205.96" y1="1238.11" x2="3205.96" y2="1252" id="line485" />
               <line class="cls-5" x1="3225.63" y1="1147.83" x2="3225.63" y2="1163.72" id="line487" />
               <line class="cls-5" x1="3225.63" y1="1105.83" x2="3225.63" y2="1121.67" id="line489" />
               <line class="cls-5" x1="3205.96" y1="1192.44" x2="3205.96" y2="1208.83" id="line491" />
               <line class="cls-5" x1="3108.63" y1="1026.78" x2="3225.63" y2="1026.78" id="line493" />
               <line class="cls-5" x1="3437.29" y1="1031.56" x2="4178.29" y2="1031.56" id="line495" />
               <line class="cls-5" x1="4023.07" y1="1139.39" x2="4050.63" y2="1139.39" id="line497" />
               <line class="cls-5" x1="4108.18" y1="1201.69" x2="4176.96" y2="1201.69" id="line499" />
               <line class="cls-5" x1="3939.29" y1="1139.39" x2="3993.07" y2="1139.39" id="line501" />
               <line class="cls-5" x1="3848.63" y1="1139.39" x2="3910.63" y2="1139.39" id="line503" />
               <line class="cls-5" x1="4050.63" y1="1139.39" x2="4176.96" y2="1139.39" id="line505" />
               <line class="cls-5" x1="4106.85" y1="1305" x2="4178.29" y2="1305" id="line507" />
               <line class="cls-5" x1="3746.63" y1="1139.39" x2="3819.63" y2="1139.39" id="line509" />
               <line class="cls-5" x1="3437.29" y1="1139.39" x2="3717.63" y2="1139.39" id="line511" />
               <line class="cls-5" x1="3437.29" y1="1256" x2="3654.29" y2="1256" id="line513" />
               <line class="cls-5" x1="3437.29" y1="1360" x2="4178.29" y2="1360" id="line515" />
               <line class="cls-5" x1="4178.29" y1="1467.19" x2="5056.63" y2="1467.19" id="line517" />
               <line class="cls-5" x1="3437.29" y1="1590" x2="3654.29" y2="1590" id="line519" />
               <line class="cls-5" x1="3437.29" y1="1688.44" x2="3654.29" y2="1688.44" id="line521" />
               <line class="cls-5" x1="3437.29" y1="928.33" x2="3654.29" y2="928.33" id="line523" />
               <line class="cls-5" x1="4050.63" y1="936.25" x2="4178.29" y2="936.25" id="line525" />
               <line class="cls-5" x1="4050.63" y1="766.39" x2="4178.29" y2="766.39" id="line527" />
               <line class="cls-5" x1="4050.63" y1="506" x2="4178.29" y2="506" id="line529" />
               <line class="cls-5" x1="1188.29" y1="1247.49" x2="1188.29" y2="1026.78" id="line531" />
               <line class="cls-5" x1="611.04" y1="1208.81" x2="783.11" y2="1253.65" id="line533" />
               <line class="cls-5" x1="928.14" y1="1408.16" x2="1076.21" y2="1446.75" id="line535" />
               <line class="cls-5" x1="872.06" y1="1393.55" x2="892.98" y2="1399" id="line537" />
               <line class="cls-5" x1="500.9" y1="1631.51" x2="611.04" y2="1208.81" id="line539" />
               <line class="cls-5" x1="1106.36" y1="1337.87" x2="996.22" y2="1760.57" id="line541" />
               <line class="cls-5" x1="900.54" y1="1284.24" x2="1106.36" y2="1337.87" id="line543" />
               <line class="cls-5" x1="1074.12" y1="995.08" x2="1188.29" y2="1026.78" id="line545" />
               <line class="cls-5" x1="101.26" y1="1076.67" x2="611.04" y2="1208.81" id="line547" />
               <line class="cls-5" x1="305.36" y1="988.18" x2="297.04" y2="1020.47" id="line549" />
               <line class="cls-5" x1="352.11" y1="806.82" x2="316.17" y2="946.28" id="line551" />
               <line class="cls-5" x1="182.85" y1="763.54" x2="101.26" y2="1076.67" id="line553" />
               <line class="cls-5" x1="664.01" y1="888.18" x2="182.85" y2="762.67" id="line555" />
               <polyline class="cls-5" points="851.13 990.38 825.07 983.58 651.18 938.22" id="polyline557" />
               <line class="cls-5" x1="876.65" y1="997.24" x2="850.39" y2="990.39" id="line559" />
               <polyline class="cls-5" points="958.83 1018.68 951.87 1016.86 925.52 1009.99" id="polyline561" />
               <polyline class="cls-5" points="978.05 1147.37 967.83 1144.7 929.12 1134.62" id="polyline563" />
               <line class="cls-5" x1="1074.12" y1="995.08" x2="971.93" y2="968.45" id="line565" />
               <line class="cls-5" x1="1017.06" y1="1214.05" x2="1074.12" y2="995.08" id="line567" />
               <line class="cls-5" x1="1188.29" y1="1252" x2="1161.94" y2="1252" id="line569" />
               <line class="cls-5" x1="490.1" y1="1163.86" x2="486.83" y2="1176.42" id="line571" />
               <line class="cls-5" x1="512.81" y1="1076.67" x2="497.88" y2="1134.01" id="line573" />
               <line class="cls-5" x1="127.41" y1="976.29" x2="512.81" y2="1076.67" id="line575" />
               <line class="cls-5" x1="1106.21" y1="1337.78" x2="1136.1" y2="1345.57" id="line577" />
               <line class="cls-5" x1="608.39" y1="1101.44" x2="663.97" y2="888.35" id="line579" />
               <line class="cls-5" x1="808.6" y1="1153.71" x2="762.46" y2="1141.68" id="line581" />
               <line class="cls-5" x1="1111.78" y1="1238.9" x2="915.3" y2="1187.65" id="line583" />
               <line class="cls-5" x1="1161.94" y1="1251.98" x2="1144.57" y2="1247.45" id="line585" />
               <line class="cls-5" x1="851.19" y1="990.39" x2="808.6" y2="1153.71" id="line587" />
               <line class="cls-5" x1="971.93" y1="968.45" x2="958.83" y2="1018.68" id="line589" />
               <line class="cls-5" x1="1021.31" y1="981.32" x2="978.05" y2="1147.17" id="line591" />
               <line class="cls-5" x1="512.84" y1="1076.57" x2="548.27" y2="1085.81" id="line593" />
               <line class="cls-5" x1="720.93" y1="1130.85" x2="587.7" y2="1096.1" id="line595" />
               <line class="cls-5" x1="2904.29" y1="1346.67" x2="1135.29" y2="1346.67" id="line597" />
               <line class="cls-5" x1="243.1" y1="2952.1" x2="162.94" y2="2931.21" id="line599" />
               <line class="cls-5" x1="386.53" y1="2989.47" x2="276.38" y2="2960.77" id="line601" />
               <line class="cls-5" x1="657.59" y1="3060.11" x2="436.78" y2="3002.57" id="line603" />
               <line class="cls-5" x1="582.74" y1="3347.38" x2="87.42" y2="3218.31" id="line605" />
               <line class="cls-5" x1="762.8" y1="2656.37" x2="556.97" y2="2602.74" id="line607" />
               <line class="cls-5" x1="630.92" y1="2385.84" x2="614.6" y2="2381.58" id="line609" />
               <line class="cls-5" x1="820.42" y1="2435.22" x2="662.29" y2="2394.01" id="line611" />
               <line class="cls-5" x1="851.7" y1="2315.18" x2="699.98" y2="2275.65" id="line613" />
               <line class="cls-5" x1="555.04" y1="2054.92" x2="401.03" y2="2014.78" id="line615" />
               <line class="cls-5" x1="881.98" y1="2199" x2="676.15" y2="2145.37" id="line617" />
               <line class="cls-5" x1="780.83" y1="2359.42" x2="684.14" y2="2334.23" id="line619" />
               <line class="cls-5" x1="911.5" y1="2085.7" x2="705.68" y2="2032.07" id="line621" />
               <line class="cls-5" x1="967.83" y1="1869.54" x2="762" y2="1815.91" id="line623" />
               <line class="cls-5" x1="535.25" y1="2360.91" x2="325.1" y2="2306.15" id="line625" />
               <line class="cls-5" x1="595.55" y1="2129.5" x2="385.4" y2="2074.74" id="line627" />
               <line class="cls-5" x1="627.08" y1="2008.51" x2="416.93" y2="1953.74" id="line629" />
               <line class="cls-5" x1="646.53" y1="1933.88" x2="436.37" y2="1879.12" id="line631" />
               <line class="cls-5" x1="672.87" y1="1832.79" x2="462.72" y2="1778.02" id="line633" />
               <line class="cls-5" x1="467.59" y1="2620.56" x2="257.44" y2="2565.8" id="line635" />
               <polyline class="cls-5" points="767.51 1700.64 996.3 1760.26 657.59 3060.11" id="polyline637" />
               <line class="cls-5" x1="676.93" y1="1677.04" x2="729.83" y2="1690.82" id="line639" />
               <line class="cls-5" x1="500.98" y1="1631.19" x2="609.05" y2="1659.35" id="line641" />
               <line class="cls-5" x1="397.55" y1="2028.12" x2="500.98" y2="1631.19" id="line643" />
               <line class="cls-5" x1="162.28" y1="2931.04" x2="389.18" y2="2060.27" id="line645" />
               <line class="cls-5" x1="87.42" y1="3218.31" x2="162.28" y2="2931.04" id="line647" />
               <line class="cls-5" x1="539.34" y1="2670.41" x2="451.77" y2="3006.47" id="line649" />
               <line class="cls-5" x1="657.59" y1="3060.11" x2="582.74" y2="3347.38" id="line651" />
               <line class="cls-5" x1="614.6" y1="2381.58" x2="546.9" y2="2641.4" id="line653" />
               <line class="cls-5" x1="720.37" y1="2197.4" x2="699.98" y2="2275.65" id="line655" />
               <line class="cls-5" x1="781.25" y1="2359.63" x2="765.65" y2="2419.5" id="line657" />
               <line class="cls-5" x1="730.25" y1="2159.46" x2="727.62" y2="2169.57" id="line659" />
               <line class="cls-5" x1="697.36" y1="2063.97" x2="676.15" y2="2145.37" id="line661" />
               <line class="cls-5" x1="711.95" y1="2008" x2="705.68" y2="2032.07" id="line663" />
               <line class="cls-5" x1="744.62" y1="1882.62" x2="719.94" y2="1977.32" id="line665" />
               <line class="cls-5" x1="828.11" y1="1562.2" x2="751.8" y2="1855.07" id="line667" />
               <line class="cls-5" x1="884.54" y1="1345.64" x2="838.39" y2="1522.74" id="line669" />
               <line class="cls-5" x1="900.54" y1="1284.25" x2="892.3" y2="1315.87" id="line671" />
               <line class="cls-5" x1="669.23" y1="1846.74" x2="711.13" y2="1685.95" id="line673" />
               <line class="cls-5" x1="641.94" y1="1951.48" x2="661.53" y2="1876.28" id="line675" />
               <line class="cls-5" x1="616.98" y1="2047.26" x2="634.34" y2="1980.66" id="line677" />
               <line class="cls-5" x1="592.93" y1="2139.57" x2="607.43" y2="2083.93" id="line679" />
               <line class="cls-5" x1="561.11" y1="2261.66" x2="585.02" y2="2169.91" id="line681" />
               <line class="cls-5" x1="533.04" y1="2369.41" x2="553.88" y2="2289.42" id="line683" />
               <line class="cls-5" x1="467.55" y1="2620.72" x2="525.18" y2="2399.54" id="line685" />
               <line class="cls-5" x1="372.42" y1="2985.8" x2="460.06" y2="2649.48" id="line687" />
            </g>
         </g>
      </g>
   </g>
</svg>
