<svg xmlns="http://www.w3.org/2000/svg" viewBox="0 0 2590.32 949.4">
    <path id="SALA" class="cls-2" d="m 1803.49,0 h 195.53 v 275.88 h -195.53 z" />
    <path id="SZAT" class="cls-2" d="m 1596.73,137.94 h 71.71 v 137.94 h -71.71 z" />
    <path id="TSZK" class="cls-2" d="m 1668.4399,137.94 h 75.88 v 137.94 h -75.88 z" />
    <path id="SEK2" class="cls-2" d="m 1803.49,290.70999 h 143.41 v 75.88 h -143.41 z" />
    <path id="KS" class="cls-2" d="m 1803.49,366.59 h 143.41 v 75.87999 h -143.41 z" />
    <path id="HALA" class="cls-2" d="m 2371.96,232.82001 h 218.35 v 419.29001 h -218.35 z" />
    <path id="SEK" class="cls-2" d="m 2142.4399,526.46997 h 143.41 v 125.65 h -143.41 z" />
    <path id="DYR" class="cls-2" d="m 1999.02,526.46997 h 143.41 v 125.65 h -143.41 z" />
    <path id="_27" class="cls-2" d="m 1435.49,526.46997 h 232.94 v 125.65 h -232.94 z" />
    <path id="_30" class="cls-2" d="m 1185.61,526.46997 h 249.88 v 125.65 h -249.88 z" />
    <path id="_32" class="cls-2" d="m 885.38,526.46997 h 300.23 v 125.65 H 885.38 Z" />
    <path id="_36" class="cls-2" d="m 606.78998,526.46997 h 278.58899 v 125.65 H 606.78998 Z" />
    <path id="_26" class="cls-2" d="m 1435.49,750.94 h 232.94 v 125.65 h -232.94 z" />
    <path id="_38" class="cls-2" d="M 413.97,744.94 H 536.2 V 949.29001 H 413.97 Z" />
    <path id="_42" class="cls-2" transform="rotate(6.27,103.16943,536.22195)" d="M 6.29,473 H 199.98 V 598.65 H 6.29 Z" />
    <path id="K" class="cls-2" transform="rotate(6.27,252.03345,552.60757)" d="m 198.8,489.35999 h 106.18 v 125.65 H 198.8 Z" />
    <path id="PN_T" class="cls-2" d="m 1803.49,526.46997 h 195.53 v 394.94 h -195.53 z" />
    <path id="_37" class="cls-2" d="M 606.93,526.5 425.7,508.35 410.7,632.44 607,652.1 v -124 a 5.37,5.37 0 0 1 -0.07,-1.6 z" />
</svg>